G04 #@! TF.GenerationSoftware,KiCad,Pcbnew,9.0.6*
G04 #@! TF.CreationDate,2025-12-22T21:50:12-08:00*
G04 #@! TF.ProjectId,harp.device.quad.dac,68617270-2e64-4657-9669-63652e717561,1.1*
G04 #@! TF.SameCoordinates,PX5b6e7e8PY7bfa480*
G04 #@! TF.FileFunction,Soldermask,Top*
G04 #@! TF.FilePolarity,Negative*
%FSLAX46Y46*%
G04 Gerber Fmt 4.6, Leading zero omitted, Abs format (unit mm)*
G04 Created by KiCad (PCBNEW 9.0.6) date 2025-12-22 21:50:12*
%MOMM*%
%LPD*%
G01*
G04 APERTURE LIST*
G04 Aperture macros list*
%AMRoundRect*
0 Rectangle with rounded corners*
0 $1 Rounding radius*
0 $2 $3 $4 $5 $6 $7 $8 $9 X,Y pos of 4 corners*
0 Add a 4 corners polygon primitive as box body*
4,1,4,$2,$3,$4,$5,$6,$7,$8,$9,$2,$3,0*
0 Add four circle primitives for the rounded corners*
1,1,$1+$1,$2,$3*
1,1,$1+$1,$4,$5*
1,1,$1+$1,$6,$7*
1,1,$1+$1,$8,$9*
0 Add four rect primitives between the rounded corners*
20,1,$1+$1,$2,$3,$4,$5,0*
20,1,$1+$1,$4,$5,$6,$7,0*
20,1,$1+$1,$6,$7,$8,$9,0*
20,1,$1+$1,$8,$9,$2,$3,0*%
G04 Aperture macros list end*
%ADD10C,0.100000*%
%ADD11C,0.300000*%
%ADD12RoundRect,0.135000X-0.185000X0.135000X-0.185000X-0.135000X0.185000X-0.135000X0.185000X0.135000X0*%
%ADD13RoundRect,0.135000X-0.135000X-0.185000X0.135000X-0.185000X0.135000X0.185000X-0.135000X0.185000X0*%
%ADD14RoundRect,0.200000X0.275000X-0.200000X0.275000X0.200000X-0.275000X0.200000X-0.275000X-0.200000X0*%
%ADD15RoundRect,0.135000X0.035355X-0.226274X0.226274X-0.035355X-0.035355X0.226274X-0.226274X0.035355X0*%
%ADD16R,1.700000X1.700000*%
%ADD17C,1.700000*%
%ADD18C,2.000000*%
%ADD19C,2.500000*%
%ADD20RoundRect,0.140000X-0.140000X-0.170000X0.140000X-0.170000X0.140000X0.170000X-0.140000X0.170000X0*%
%ADD21RoundRect,0.225000X-0.225000X-0.250000X0.225000X-0.250000X0.225000X0.250000X-0.225000X0.250000X0*%
%ADD22RoundRect,0.135000X0.135000X0.185000X-0.135000X0.185000X-0.135000X-0.185000X0.135000X-0.185000X0*%
%ADD23RoundRect,0.050000X-0.150000X-0.300000X0.150000X-0.300000X0.150000X0.300000X-0.150000X0.300000X0*%
%ADD24RoundRect,0.125000X0.687500X0.125000X-0.687500X0.125000X-0.687500X-0.125000X0.687500X-0.125000X0*%
%ADD25RoundRect,0.140000X0.170000X-0.140000X0.170000X0.140000X-0.170000X0.140000X-0.170000X-0.140000X0*%
%ADD26RoundRect,0.140000X0.140000X0.170000X-0.140000X0.170000X-0.140000X-0.170000X0.140000X-0.170000X0*%
%ADD27R,0.700000X1.200000*%
%ADD28R,1.000000X0.800000*%
%ADD29R,1.000000X1.200000*%
%ADD30R,1.000000X2.800000*%
%ADD31R,1.300000X1.900000*%
%ADD32RoundRect,0.125000X-0.687500X-0.125000X0.687500X-0.125000X0.687500X0.125000X-0.687500X0.125000X0*%
%ADD33RoundRect,0.200000X-0.275000X0.200000X-0.275000X-0.200000X0.275000X-0.200000X0.275000X0.200000X0*%
%ADD34RoundRect,0.225000X-0.250000X0.225000X-0.250000X-0.225000X0.250000X-0.225000X0.250000X0.225000X0*%
%ADD35RoundRect,0.135000X0.185000X-0.135000X0.185000X0.135000X-0.185000X0.135000X-0.185000X-0.135000X0*%
%ADD36RoundRect,0.050000X-0.300000X0.150000X-0.300000X-0.150000X0.300000X-0.150000X0.300000X0.150000X0*%
%ADD37RoundRect,0.140000X-0.170000X0.140000X-0.170000X-0.140000X0.170000X-0.140000X0.170000X0.140000X0*%
%ADD38RoundRect,0.087500X0.725000X0.087500X-0.725000X0.087500X-0.725000X-0.087500X0.725000X-0.087500X0*%
%ADD39RoundRect,0.150000X0.512500X0.150000X-0.512500X0.150000X-0.512500X-0.150000X0.512500X-0.150000X0*%
%ADD40RoundRect,0.112500X0.112500X-0.187500X0.112500X0.187500X-0.112500X0.187500X-0.112500X-0.187500X0*%
%ADD41RoundRect,0.200000X0.200000X-0.250000X0.200000X0.250000X-0.200000X0.250000X-0.200000X-0.250000X0*%
%ADD42RoundRect,0.055000X0.335000X-0.055000X0.335000X0.055000X-0.335000X0.055000X-0.335000X-0.055000X0*%
%ADD43RoundRect,0.055000X-0.055000X-0.335000X0.055000X-0.335000X0.055000X0.335000X-0.055000X0.335000X0*%
%ADD44C,0.600000*%
%ADD45R,1.133333X1.133333*%
%ADD46RoundRect,0.218750X0.218750X0.256250X-0.218750X0.256250X-0.218750X-0.256250X0.218750X-0.256250X0*%
%ADD47RoundRect,0.250000X0.475000X-0.250000X0.475000X0.250000X-0.475000X0.250000X-0.475000X-0.250000X0*%
%ADD48RoundRect,0.250000X0.375000X1.075000X-0.375000X1.075000X-0.375000X-1.075000X0.375000X-1.075000X0*%
%ADD49RoundRect,0.050000X0.150000X0.300000X-0.150000X0.300000X-0.150000X-0.300000X0.150000X-0.300000X0*%
%ADD50C,3.200000*%
%ADD51RoundRect,0.087500X0.087500X-0.537500X0.087500X0.537500X-0.087500X0.537500X-0.087500X-0.537500X0*%
%ADD52RoundRect,0.250000X0.600000X-0.400000X0.600000X0.400000X-0.600000X0.400000X-0.600000X-0.400000X0*%
%ADD53RoundRect,0.150000X-0.587500X-0.150000X0.587500X-0.150000X0.587500X0.150000X-0.587500X0.150000X0*%
%ADD54RoundRect,0.087500X-0.087500X0.537500X-0.087500X-0.537500X0.087500X-0.537500X0.087500X0.537500X0*%
%ADD55RoundRect,0.237500X-0.237500X0.287500X-0.237500X-0.287500X0.237500X-0.287500X0.237500X0.287500X0*%
%ADD56RoundRect,0.150000X0.587500X0.150000X-0.587500X0.150000X-0.587500X-0.150000X0.587500X-0.150000X0*%
%ADD57RoundRect,0.375000X0.625000X0.375000X-0.625000X0.375000X-0.625000X-0.375000X0.625000X-0.375000X0*%
%ADD58RoundRect,0.500000X0.500000X1.400000X-0.500000X1.400000X-0.500000X-1.400000X0.500000X-1.400000X0*%
%ADD59RoundRect,0.075000X-0.075000X-0.075000X0.075000X-0.075000X0.075000X0.075000X-0.075000X0.075000X0*%
%ADD60RoundRect,0.150000X-0.512500X-0.150000X0.512500X-0.150000X0.512500X0.150000X-0.512500X0.150000X0*%
%ADD61RoundRect,0.225000X0.225000X0.250000X-0.225000X0.250000X-0.225000X-0.250000X0.225000X-0.250000X0*%
%ADD62RoundRect,0.250000X-0.475000X0.250000X-0.475000X-0.250000X0.475000X-0.250000X0.475000X0.250000X0*%
%ADD63RoundRect,0.135000X-0.035355X0.226274X-0.226274X0.035355X0.035355X-0.226274X0.226274X-0.035355X0*%
%ADD64RoundRect,0.225000X0.250000X-0.225000X0.250000X0.225000X-0.250000X0.225000X-0.250000X-0.225000X0*%
%ADD65RoundRect,0.150000X-0.150000X0.875000X-0.150000X-0.875000X0.150000X-0.875000X0.150000X0.875000X0*%
%ADD66RoundRect,0.250000X-0.375000X-1.075000X0.375000X-1.075000X0.375000X1.075000X-0.375000X1.075000X0*%
%ADD67RoundRect,0.150000X-0.150000X0.587500X-0.150000X-0.587500X0.150000X-0.587500X0.150000X0.587500X0*%
%ADD68RoundRect,0.112500X-0.112500X0.187500X-0.112500X-0.187500X0.112500X-0.187500X0.112500X0.187500X0*%
%ADD69RoundRect,0.250000X-0.250000X-0.550000X0.250000X-0.550000X0.250000X0.550000X-0.250000X0.550000X0*%
%ADD70RoundRect,0.056750X0.170250X-0.320250X0.170250X0.320250X-0.170250X0.320250X-0.170250X-0.320250X0*%
%ADD71RoundRect,0.050500X0.151500X-0.326500X0.151500X0.326500X-0.151500X0.326500X-0.151500X-0.326500X0*%
%ADD72RoundRect,0.063000X0.339000X-0.189000X0.339000X0.189000X-0.339000X0.189000X-0.339000X-0.189000X0*%
%ADD73RoundRect,0.250000X0.250000X0.475000X-0.250000X0.475000X-0.250000X-0.475000X0.250000X-0.475000X0*%
%ADD74RoundRect,0.150000X-0.150000X0.512500X-0.150000X-0.512500X0.150000X-0.512500X0.150000X0.512500X0*%
%ADD75R,0.254000X0.762000*%
%ADD76R,2.057400X1.244600*%
%ADD77RoundRect,0.062500X-0.387500X-0.062500X0.387500X-0.062500X0.387500X0.062500X-0.387500X0.062500X0*%
%ADD78R,0.200000X1.600000*%
%ADD79RoundRect,0.140000X-0.219203X-0.021213X-0.021213X-0.219203X0.219203X0.021213X0.021213X0.219203X0*%
%ADD80R,1.000000X2.000000*%
%ADD81O,0.850000X0.600000*%
%ADD82R,0.520000X1.000000*%
%ADD83R,0.270000X1.000000*%
%ADD84O,1.300000X2.300000*%
%ADD85O,1.300000X2.600000*%
%ADD86R,1.000000X0.900000*%
%ADD87R,0.550000X1.700000*%
%ADD88RoundRect,0.140000X0.021213X-0.219203X0.219203X-0.021213X-0.021213X0.219203X-0.219203X0.021213X0*%
%ADD89RoundRect,0.375000X-0.625000X-0.375000X0.625000X-0.375000X0.625000X0.375000X-0.625000X0.375000X0*%
%ADD90RoundRect,0.500000X-0.500000X-1.400000X0.500000X-1.400000X0.500000X1.400000X-0.500000X1.400000X0*%
%ADD91RoundRect,0.200000X0.200000X0.275000X-0.200000X0.275000X-0.200000X-0.275000X0.200000X-0.275000X0*%
%ADD92RoundRect,0.135000X0.226274X0.035355X0.035355X0.226274X-0.226274X-0.035355X-0.035355X-0.226274X0*%
%ADD93R,3.800000X1.000000*%
%ADD94RoundRect,0.062500X-0.325000X-0.062500X0.325000X-0.062500X0.325000X0.062500X-0.325000X0.062500X0*%
%ADD95RoundRect,0.062500X-0.062500X-0.325000X0.062500X-0.325000X0.062500X0.325000X-0.062500X0.325000X0*%
%ADD96R,2.450000X2.450000*%
%ADD97RoundRect,0.050000X0.300000X-0.150000X0.300000X0.150000X-0.300000X0.150000X-0.300000X-0.150000X0*%
%ADD98C,2.750000*%
%ADD99R,2.600000X2.600000*%
%ADD100C,2.600000*%
G04 APERTURE END LIST*
D10*
X63700000Y2900000D02*
G75*
G02*
X63500000Y2900000I-100000J0D01*
G01*
X63500000Y2900000D02*
G75*
G02*
X63700000Y2900000I100000J0D01*
G01*
X67200000Y2900000D02*
G75*
G02*
X67000000Y2900000I-100000J0D01*
G01*
X67000000Y2900000D02*
G75*
G02*
X67200000Y2900000I100000J0D01*
G01*
X56700000Y2900000D02*
G75*
G02*
X56500000Y2900000I-100000J0D01*
G01*
X56500000Y2900000D02*
G75*
G02*
X56700000Y2900000I100000J0D01*
G01*
X60200000Y2900000D02*
G75*
G02*
X60000000Y2900000I-100000J0D01*
G01*
X60000000Y2900000D02*
G75*
G02*
X60200000Y2900000I100000J0D01*
G01*
D11*
X80921679Y38460362D02*
X80921679Y40460362D01*
X80921679Y40460362D02*
X81397869Y40460362D01*
X81397869Y40460362D02*
X81683584Y40365124D01*
X81683584Y40365124D02*
X81874060Y40174648D01*
X81874060Y40174648D02*
X81969298Y39984172D01*
X81969298Y39984172D02*
X82064536Y39603220D01*
X82064536Y39603220D02*
X82064536Y39317505D01*
X82064536Y39317505D02*
X81969298Y38936553D01*
X81969298Y38936553D02*
X81874060Y38746077D01*
X81874060Y38746077D02*
X81683584Y38555600D01*
X81683584Y38555600D02*
X81397869Y38460362D01*
X81397869Y38460362D02*
X80921679Y38460362D01*
X82921679Y38460362D02*
X82921679Y40460362D01*
X83778822Y40269886D02*
X83874060Y40365124D01*
X83874060Y40365124D02*
X84064536Y40460362D01*
X84064536Y40460362D02*
X84540727Y40460362D01*
X84540727Y40460362D02*
X84731203Y40365124D01*
X84731203Y40365124D02*
X84826441Y40269886D01*
X84826441Y40269886D02*
X84921679Y40079410D01*
X84921679Y40079410D02*
X84921679Y39888934D01*
X84921679Y39888934D02*
X84826441Y39603220D01*
X84826441Y39603220D02*
X83683584Y38460362D01*
X83683584Y38460362D02*
X84921679Y38460362D01*
X61878822Y56560362D02*
X61878822Y58560362D01*
X61878822Y58560362D02*
X62355012Y58560362D01*
X62355012Y58560362D02*
X62640727Y58465124D01*
X62640727Y58465124D02*
X62831203Y58274648D01*
X62831203Y58274648D02*
X62926441Y58084172D01*
X62926441Y58084172D02*
X63021679Y57703220D01*
X63021679Y57703220D02*
X63021679Y57417505D01*
X63021679Y57417505D02*
X62926441Y57036553D01*
X62926441Y57036553D02*
X62831203Y56846077D01*
X62831203Y56846077D02*
X62640727Y56655600D01*
X62640727Y56655600D02*
X62355012Y56560362D01*
X62355012Y56560362D02*
X61878822Y56560362D01*
X64259774Y58560362D02*
X64640727Y58560362D01*
X64640727Y58560362D02*
X64831203Y58465124D01*
X64831203Y58465124D02*
X65021679Y58274648D01*
X65021679Y58274648D02*
X65116917Y57893696D01*
X65116917Y57893696D02*
X65116917Y57227029D01*
X65116917Y57227029D02*
X65021679Y56846077D01*
X65021679Y56846077D02*
X64831203Y56655600D01*
X64831203Y56655600D02*
X64640727Y56560362D01*
X64640727Y56560362D02*
X64259774Y56560362D01*
X64259774Y56560362D02*
X64069298Y56655600D01*
X64069298Y56655600D02*
X63878822Y56846077D01*
X63878822Y56846077D02*
X63783584Y57227029D01*
X63783584Y57227029D02*
X63783584Y57893696D01*
X63783584Y57893696D02*
X63878822Y58274648D01*
X63878822Y58274648D02*
X64069298Y58465124D01*
X64069298Y58465124D02*
X64259774Y58560362D01*
X67021679Y56560362D02*
X65878822Y56560362D01*
X66450250Y56560362D02*
X66450250Y58560362D01*
X66450250Y58560362D02*
X66259774Y58274648D01*
X66259774Y58274648D02*
X66069298Y58084172D01*
X66069298Y58084172D02*
X65878822Y57988934D01*
X80921679Y74460362D02*
X80921679Y76460362D01*
X80921679Y76460362D02*
X81397869Y76460362D01*
X81397869Y76460362D02*
X81683584Y76365124D01*
X81683584Y76365124D02*
X81874060Y76174648D01*
X81874060Y76174648D02*
X81969298Y75984172D01*
X81969298Y75984172D02*
X82064536Y75603220D01*
X82064536Y75603220D02*
X82064536Y75317505D01*
X82064536Y75317505D02*
X81969298Y74936553D01*
X81969298Y74936553D02*
X81874060Y74746077D01*
X81874060Y74746077D02*
X81683584Y74555600D01*
X81683584Y74555600D02*
X81397869Y74460362D01*
X81397869Y74460362D02*
X80921679Y74460362D01*
X82921679Y74460362D02*
X82921679Y76460362D01*
X84255012Y76460362D02*
X84445489Y76460362D01*
X84445489Y76460362D02*
X84635965Y76365124D01*
X84635965Y76365124D02*
X84731203Y76269886D01*
X84731203Y76269886D02*
X84826441Y76079410D01*
X84826441Y76079410D02*
X84921679Y75698458D01*
X84921679Y75698458D02*
X84921679Y75222267D01*
X84921679Y75222267D02*
X84826441Y74841315D01*
X84826441Y74841315D02*
X84731203Y74650839D01*
X84731203Y74650839D02*
X84635965Y74555600D01*
X84635965Y74555600D02*
X84445489Y74460362D01*
X84445489Y74460362D02*
X84255012Y74460362D01*
X84255012Y74460362D02*
X84064536Y74555600D01*
X84064536Y74555600D02*
X83969298Y74650839D01*
X83969298Y74650839D02*
X83874060Y74841315D01*
X83874060Y74841315D02*
X83778822Y75222267D01*
X83778822Y75222267D02*
X83778822Y75698458D01*
X83778822Y75698458D02*
X83874060Y76079410D01*
X83874060Y76079410D02*
X83969298Y76269886D01*
X83969298Y76269886D02*
X84064536Y76365124D01*
X84064536Y76365124D02*
X84255012Y76460362D01*
X80921679Y20460362D02*
X80921679Y22460362D01*
X80921679Y22460362D02*
X81397869Y22460362D01*
X81397869Y22460362D02*
X81683584Y22365124D01*
X81683584Y22365124D02*
X81874060Y22174648D01*
X81874060Y22174648D02*
X81969298Y21984172D01*
X81969298Y21984172D02*
X82064536Y21603220D01*
X82064536Y21603220D02*
X82064536Y21317505D01*
X82064536Y21317505D02*
X81969298Y20936553D01*
X81969298Y20936553D02*
X81874060Y20746077D01*
X81874060Y20746077D02*
X81683584Y20555600D01*
X81683584Y20555600D02*
X81397869Y20460362D01*
X81397869Y20460362D02*
X80921679Y20460362D01*
X82921679Y20460362D02*
X82921679Y22460362D01*
X83683584Y22460362D02*
X84921679Y22460362D01*
X84921679Y22460362D02*
X84255012Y21698458D01*
X84255012Y21698458D02*
X84540727Y21698458D01*
X84540727Y21698458D02*
X84731203Y21603220D01*
X84731203Y21603220D02*
X84826441Y21507981D01*
X84826441Y21507981D02*
X84921679Y21317505D01*
X84921679Y21317505D02*
X84921679Y20841315D01*
X84921679Y20841315D02*
X84826441Y20650839D01*
X84826441Y20650839D02*
X84731203Y20555600D01*
X84731203Y20555600D02*
X84540727Y20460362D01*
X84540727Y20460362D02*
X83969298Y20460362D01*
X83969298Y20460362D02*
X83778822Y20555600D01*
X83778822Y20555600D02*
X83683584Y20650839D01*
X80921679Y56460362D02*
X80921679Y58460362D01*
X80921679Y58460362D02*
X81397869Y58460362D01*
X81397869Y58460362D02*
X81683584Y58365124D01*
X81683584Y58365124D02*
X81874060Y58174648D01*
X81874060Y58174648D02*
X81969298Y57984172D01*
X81969298Y57984172D02*
X82064536Y57603220D01*
X82064536Y57603220D02*
X82064536Y57317505D01*
X82064536Y57317505D02*
X81969298Y56936553D01*
X81969298Y56936553D02*
X81874060Y56746077D01*
X81874060Y56746077D02*
X81683584Y56555600D01*
X81683584Y56555600D02*
X81397869Y56460362D01*
X81397869Y56460362D02*
X80921679Y56460362D01*
X82921679Y56460362D02*
X82921679Y58460362D01*
X84921679Y56460362D02*
X83778822Y56460362D01*
X84350250Y56460362D02*
X84350250Y58460362D01*
X84350250Y58460362D02*
X84159774Y58174648D01*
X84159774Y58174648D02*
X83969298Y57984172D01*
X83969298Y57984172D02*
X83778822Y57888934D01*
X61878822Y74460362D02*
X61878822Y76460362D01*
X61878822Y76460362D02*
X62355012Y76460362D01*
X62355012Y76460362D02*
X62640727Y76365124D01*
X62640727Y76365124D02*
X62831203Y76174648D01*
X62831203Y76174648D02*
X62926441Y75984172D01*
X62926441Y75984172D02*
X63021679Y75603220D01*
X63021679Y75603220D02*
X63021679Y75317505D01*
X63021679Y75317505D02*
X62926441Y74936553D01*
X62926441Y74936553D02*
X62831203Y74746077D01*
X62831203Y74746077D02*
X62640727Y74555600D01*
X62640727Y74555600D02*
X62355012Y74460362D01*
X62355012Y74460362D02*
X61878822Y74460362D01*
X64259774Y76460362D02*
X64640727Y76460362D01*
X64640727Y76460362D02*
X64831203Y76365124D01*
X64831203Y76365124D02*
X65021679Y76174648D01*
X65021679Y76174648D02*
X65116917Y75793696D01*
X65116917Y75793696D02*
X65116917Y75127029D01*
X65116917Y75127029D02*
X65021679Y74746077D01*
X65021679Y74746077D02*
X64831203Y74555600D01*
X64831203Y74555600D02*
X64640727Y74460362D01*
X64640727Y74460362D02*
X64259774Y74460362D01*
X64259774Y74460362D02*
X64069298Y74555600D01*
X64069298Y74555600D02*
X63878822Y74746077D01*
X63878822Y74746077D02*
X63783584Y75127029D01*
X63783584Y75127029D02*
X63783584Y75793696D01*
X63783584Y75793696D02*
X63878822Y76174648D01*
X63878822Y76174648D02*
X64069298Y76365124D01*
X64069298Y76365124D02*
X64259774Y76460362D01*
X66355012Y76460362D02*
X66545489Y76460362D01*
X66545489Y76460362D02*
X66735965Y76365124D01*
X66735965Y76365124D02*
X66831203Y76269886D01*
X66831203Y76269886D02*
X66926441Y76079410D01*
X66926441Y76079410D02*
X67021679Y75698458D01*
X67021679Y75698458D02*
X67021679Y75222267D01*
X67021679Y75222267D02*
X66926441Y74841315D01*
X66926441Y74841315D02*
X66831203Y74650839D01*
X66831203Y74650839D02*
X66735965Y74555600D01*
X66735965Y74555600D02*
X66545489Y74460362D01*
X66545489Y74460362D02*
X66355012Y74460362D01*
X66355012Y74460362D02*
X66164536Y74555600D01*
X66164536Y74555600D02*
X66069298Y74650839D01*
X66069298Y74650839D02*
X65974060Y74841315D01*
X65974060Y74841315D02*
X65878822Y75222267D01*
X65878822Y75222267D02*
X65878822Y75698458D01*
X65878822Y75698458D02*
X65974060Y76079410D01*
X65974060Y76079410D02*
X66069298Y76269886D01*
X66069298Y76269886D02*
X66164536Y76365124D01*
X66164536Y76365124D02*
X66355012Y76460362D01*
X4478320Y56531791D02*
X5430701Y56531791D01*
X4287844Y55960362D02*
X4954510Y57960362D01*
X4954510Y57960362D02*
X5621177Y55960362D01*
X6668796Y57960362D02*
X7049749Y57960362D01*
X7049749Y57960362D02*
X7240225Y57865124D01*
X7240225Y57865124D02*
X7430701Y57674648D01*
X7430701Y57674648D02*
X7525939Y57293696D01*
X7525939Y57293696D02*
X7525939Y56627029D01*
X7525939Y56627029D02*
X7430701Y56246077D01*
X7430701Y56246077D02*
X7240225Y56055600D01*
X7240225Y56055600D02*
X7049749Y55960362D01*
X7049749Y55960362D02*
X6668796Y55960362D01*
X6668796Y55960362D02*
X6478320Y56055600D01*
X6478320Y56055600D02*
X6287844Y56246077D01*
X6287844Y56246077D02*
X6192606Y56627029D01*
X6192606Y56627029D02*
X6192606Y57293696D01*
X6192606Y57293696D02*
X6287844Y57674648D01*
X6287844Y57674648D02*
X6478320Y57865124D01*
X6478320Y57865124D02*
X6668796Y57960362D01*
X9430701Y55960362D02*
X8287844Y55960362D01*
X8859272Y55960362D02*
X8859272Y57960362D01*
X8859272Y57960362D02*
X8668796Y57674648D01*
X8668796Y57674648D02*
X8478320Y57484172D01*
X8478320Y57484172D02*
X8287844Y57388934D01*
X61878822Y20460362D02*
X61878822Y22460362D01*
X61878822Y22460362D02*
X62355012Y22460362D01*
X62355012Y22460362D02*
X62640727Y22365124D01*
X62640727Y22365124D02*
X62831203Y22174648D01*
X62831203Y22174648D02*
X62926441Y21984172D01*
X62926441Y21984172D02*
X63021679Y21603220D01*
X63021679Y21603220D02*
X63021679Y21317505D01*
X63021679Y21317505D02*
X62926441Y20936553D01*
X62926441Y20936553D02*
X62831203Y20746077D01*
X62831203Y20746077D02*
X62640727Y20555600D01*
X62640727Y20555600D02*
X62355012Y20460362D01*
X62355012Y20460362D02*
X61878822Y20460362D01*
X64259774Y22460362D02*
X64640727Y22460362D01*
X64640727Y22460362D02*
X64831203Y22365124D01*
X64831203Y22365124D02*
X65021679Y22174648D01*
X65021679Y22174648D02*
X65116917Y21793696D01*
X65116917Y21793696D02*
X65116917Y21127029D01*
X65116917Y21127029D02*
X65021679Y20746077D01*
X65021679Y20746077D02*
X64831203Y20555600D01*
X64831203Y20555600D02*
X64640727Y20460362D01*
X64640727Y20460362D02*
X64259774Y20460362D01*
X64259774Y20460362D02*
X64069298Y20555600D01*
X64069298Y20555600D02*
X63878822Y20746077D01*
X63878822Y20746077D02*
X63783584Y21127029D01*
X63783584Y21127029D02*
X63783584Y21793696D01*
X63783584Y21793696D02*
X63878822Y22174648D01*
X63878822Y22174648D02*
X64069298Y22365124D01*
X64069298Y22365124D02*
X64259774Y22460362D01*
X65783584Y22460362D02*
X67021679Y22460362D01*
X67021679Y22460362D02*
X66355012Y21698458D01*
X66355012Y21698458D02*
X66640727Y21698458D01*
X66640727Y21698458D02*
X66831203Y21603220D01*
X66831203Y21603220D02*
X66926441Y21507981D01*
X66926441Y21507981D02*
X67021679Y21317505D01*
X67021679Y21317505D02*
X67021679Y20841315D01*
X67021679Y20841315D02*
X66926441Y20650839D01*
X66926441Y20650839D02*
X66831203Y20555600D01*
X66831203Y20555600D02*
X66640727Y20460362D01*
X66640727Y20460362D02*
X66069298Y20460362D01*
X66069298Y20460362D02*
X65878822Y20555600D01*
X65878822Y20555600D02*
X65783584Y20650839D01*
X4478320Y74631791D02*
X5430701Y74631791D01*
X4287844Y74060362D02*
X4954510Y76060362D01*
X4954510Y76060362D02*
X5621177Y74060362D01*
X6668796Y76060362D02*
X7049749Y76060362D01*
X7049749Y76060362D02*
X7240225Y75965124D01*
X7240225Y75965124D02*
X7430701Y75774648D01*
X7430701Y75774648D02*
X7525939Y75393696D01*
X7525939Y75393696D02*
X7525939Y74727029D01*
X7525939Y74727029D02*
X7430701Y74346077D01*
X7430701Y74346077D02*
X7240225Y74155600D01*
X7240225Y74155600D02*
X7049749Y74060362D01*
X7049749Y74060362D02*
X6668796Y74060362D01*
X6668796Y74060362D02*
X6478320Y74155600D01*
X6478320Y74155600D02*
X6287844Y74346077D01*
X6287844Y74346077D02*
X6192606Y74727029D01*
X6192606Y74727029D02*
X6192606Y75393696D01*
X6192606Y75393696D02*
X6287844Y75774648D01*
X6287844Y75774648D02*
X6478320Y75965124D01*
X6478320Y75965124D02*
X6668796Y76060362D01*
X8764034Y76060362D02*
X8954511Y76060362D01*
X8954511Y76060362D02*
X9144987Y75965124D01*
X9144987Y75965124D02*
X9240225Y75869886D01*
X9240225Y75869886D02*
X9335463Y75679410D01*
X9335463Y75679410D02*
X9430701Y75298458D01*
X9430701Y75298458D02*
X9430701Y74822267D01*
X9430701Y74822267D02*
X9335463Y74441315D01*
X9335463Y74441315D02*
X9240225Y74250839D01*
X9240225Y74250839D02*
X9144987Y74155600D01*
X9144987Y74155600D02*
X8954511Y74060362D01*
X8954511Y74060362D02*
X8764034Y74060362D01*
X8764034Y74060362D02*
X8573558Y74155600D01*
X8573558Y74155600D02*
X8478320Y74250839D01*
X8478320Y74250839D02*
X8383082Y74441315D01*
X8383082Y74441315D02*
X8287844Y74822267D01*
X8287844Y74822267D02*
X8287844Y75298458D01*
X8287844Y75298458D02*
X8383082Y75679410D01*
X8383082Y75679410D02*
X8478320Y75869886D01*
X8478320Y75869886D02*
X8573558Y75965124D01*
X8573558Y75965124D02*
X8764034Y76060362D01*
X61878822Y38460362D02*
X61878822Y40460362D01*
X61878822Y40460362D02*
X62355012Y40460362D01*
X62355012Y40460362D02*
X62640727Y40365124D01*
X62640727Y40365124D02*
X62831203Y40174648D01*
X62831203Y40174648D02*
X62926441Y39984172D01*
X62926441Y39984172D02*
X63021679Y39603220D01*
X63021679Y39603220D02*
X63021679Y39317505D01*
X63021679Y39317505D02*
X62926441Y38936553D01*
X62926441Y38936553D02*
X62831203Y38746077D01*
X62831203Y38746077D02*
X62640727Y38555600D01*
X62640727Y38555600D02*
X62355012Y38460362D01*
X62355012Y38460362D02*
X61878822Y38460362D01*
X64259774Y40460362D02*
X64640727Y40460362D01*
X64640727Y40460362D02*
X64831203Y40365124D01*
X64831203Y40365124D02*
X65021679Y40174648D01*
X65021679Y40174648D02*
X65116917Y39793696D01*
X65116917Y39793696D02*
X65116917Y39127029D01*
X65116917Y39127029D02*
X65021679Y38746077D01*
X65021679Y38746077D02*
X64831203Y38555600D01*
X64831203Y38555600D02*
X64640727Y38460362D01*
X64640727Y38460362D02*
X64259774Y38460362D01*
X64259774Y38460362D02*
X64069298Y38555600D01*
X64069298Y38555600D02*
X63878822Y38746077D01*
X63878822Y38746077D02*
X63783584Y39127029D01*
X63783584Y39127029D02*
X63783584Y39793696D01*
X63783584Y39793696D02*
X63878822Y40174648D01*
X63878822Y40174648D02*
X64069298Y40365124D01*
X64069298Y40365124D02*
X64259774Y40460362D01*
X65878822Y40269886D02*
X65974060Y40365124D01*
X65974060Y40365124D02*
X66164536Y40460362D01*
X66164536Y40460362D02*
X66640727Y40460362D01*
X66640727Y40460362D02*
X66831203Y40365124D01*
X66831203Y40365124D02*
X66926441Y40269886D01*
X66926441Y40269886D02*
X67021679Y40079410D01*
X67021679Y40079410D02*
X67021679Y39888934D01*
X67021679Y39888934D02*
X66926441Y39603220D01*
X66926441Y39603220D02*
X65783584Y38460362D01*
X65783584Y38460362D02*
X67021679Y38460362D01*
X4478320Y38531791D02*
X5430701Y38531791D01*
X4287844Y37960362D02*
X4954510Y39960362D01*
X4954510Y39960362D02*
X5621177Y37960362D01*
X6668796Y39960362D02*
X7049749Y39960362D01*
X7049749Y39960362D02*
X7240225Y39865124D01*
X7240225Y39865124D02*
X7430701Y39674648D01*
X7430701Y39674648D02*
X7525939Y39293696D01*
X7525939Y39293696D02*
X7525939Y38627029D01*
X7525939Y38627029D02*
X7430701Y38246077D01*
X7430701Y38246077D02*
X7240225Y38055600D01*
X7240225Y38055600D02*
X7049749Y37960362D01*
X7049749Y37960362D02*
X6668796Y37960362D01*
X6668796Y37960362D02*
X6478320Y38055600D01*
X6478320Y38055600D02*
X6287844Y38246077D01*
X6287844Y38246077D02*
X6192606Y38627029D01*
X6192606Y38627029D02*
X6192606Y39293696D01*
X6192606Y39293696D02*
X6287844Y39674648D01*
X6287844Y39674648D02*
X6478320Y39865124D01*
X6478320Y39865124D02*
X6668796Y39960362D01*
X8287844Y39769886D02*
X8383082Y39865124D01*
X8383082Y39865124D02*
X8573558Y39960362D01*
X8573558Y39960362D02*
X9049749Y39960362D01*
X9049749Y39960362D02*
X9240225Y39865124D01*
X9240225Y39865124D02*
X9335463Y39769886D01*
X9335463Y39769886D02*
X9430701Y39579410D01*
X9430701Y39579410D02*
X9430701Y39388934D01*
X9430701Y39388934D02*
X9335463Y39103220D01*
X9335463Y39103220D02*
X8192606Y37960362D01*
X8192606Y37960362D02*
X9430701Y37960362D01*
X4478320Y20531791D02*
X5430701Y20531791D01*
X4287844Y19960362D02*
X4954510Y21960362D01*
X4954510Y21960362D02*
X5621177Y19960362D01*
X6668796Y21960362D02*
X7049749Y21960362D01*
X7049749Y21960362D02*
X7240225Y21865124D01*
X7240225Y21865124D02*
X7430701Y21674648D01*
X7430701Y21674648D02*
X7525939Y21293696D01*
X7525939Y21293696D02*
X7525939Y20627029D01*
X7525939Y20627029D02*
X7430701Y20246077D01*
X7430701Y20246077D02*
X7240225Y20055600D01*
X7240225Y20055600D02*
X7049749Y19960362D01*
X7049749Y19960362D02*
X6668796Y19960362D01*
X6668796Y19960362D02*
X6478320Y20055600D01*
X6478320Y20055600D02*
X6287844Y20246077D01*
X6287844Y20246077D02*
X6192606Y20627029D01*
X6192606Y20627029D02*
X6192606Y21293696D01*
X6192606Y21293696D02*
X6287844Y21674648D01*
X6287844Y21674648D02*
X6478320Y21865124D01*
X6478320Y21865124D02*
X6668796Y21960362D01*
X8192606Y21960362D02*
X9430701Y21960362D01*
X9430701Y21960362D02*
X8764034Y21198458D01*
X8764034Y21198458D02*
X9049749Y21198458D01*
X9049749Y21198458D02*
X9240225Y21103220D01*
X9240225Y21103220D02*
X9335463Y21007981D01*
X9335463Y21007981D02*
X9430701Y20817505D01*
X9430701Y20817505D02*
X9430701Y20341315D01*
X9430701Y20341315D02*
X9335463Y20150839D01*
X9335463Y20150839D02*
X9240225Y20055600D01*
X9240225Y20055600D02*
X9049749Y19960362D01*
X9049749Y19960362D02*
X8478320Y19960362D01*
X8478320Y19960362D02*
X8287844Y20055600D01*
X8287844Y20055600D02*
X8192606Y20150839D01*
D12*
G04 #@! TO.C,R18*
X38100000Y95710000D03*
X38100000Y94690000D03*
G04 #@! TD*
G04 #@! TO.C,R17*
X51900000Y95710000D03*
X51900000Y94690000D03*
G04 #@! TD*
D13*
G04 #@! TO.C,R51*
X18890000Y7925000D03*
X19910000Y7925000D03*
G04 #@! TD*
G04 #@! TO.C,R53*
X27300000Y9125000D03*
X28320000Y9125000D03*
G04 #@! TD*
D14*
G04 #@! TO.C,R3*
X52300000Y48775000D03*
X52300000Y50425000D03*
G04 #@! TD*
D15*
G04 #@! TO.C,R11*
X39339376Y21039376D03*
X40060624Y21760624D03*
G04 #@! TD*
D13*
G04 #@! TO.C,R47*
X18890000Y44105000D03*
X19910000Y44105000D03*
G04 #@! TD*
D16*
G04 #@! TO.C,J2*
X50300000Y59400000D03*
D17*
X50300000Y61940000D03*
X50300000Y64480000D03*
G04 #@! TD*
D18*
G04 #@! TO.C,J15*
X65000000Y68000000D03*
D19*
X61850000Y71150000D03*
X61850000Y64850000D03*
X68150000Y71150000D03*
X68150000Y64850000D03*
G04 #@! TD*
D20*
G04 #@! TO.C,C71*
X26220000Y93100000D03*
X27180000Y93100000D03*
G04 #@! TD*
D21*
G04 #@! TO.C,C74*
X19825000Y97100000D03*
X21375000Y97100000D03*
G04 #@! TD*
D13*
G04 #@! TO.C,R70*
X55790000Y83225000D03*
X56810000Y83225000D03*
G04 #@! TD*
D22*
G04 #@! TO.C,R24*
X30410000Y53000000D03*
X29390000Y53000000D03*
G04 #@! TD*
D23*
G04 #@! TO.C,D1*
X48350000Y32800000D03*
X49050000Y32800000D03*
G04 #@! TD*
D24*
G04 #@! TO.C,U6*
X22512500Y31825000D03*
X22512500Y32475000D03*
X22512500Y33125000D03*
X22512500Y33775000D03*
X18287500Y33775000D03*
X18287500Y33125000D03*
X18287500Y32475000D03*
X18287500Y31825000D03*
G04 #@! TD*
D25*
G04 #@! TO.C,C41*
X25287500Y30895000D03*
X25287500Y31855000D03*
G04 #@! TD*
D21*
G04 #@! TO.C,C15*
X44925000Y32800000D03*
X46475000Y32800000D03*
G04 #@! TD*
D22*
G04 #@! TO.C,R7*
X43710000Y91600000D03*
X42690000Y91600000D03*
G04 #@! TD*
D23*
G04 #@! TO.C,D14*
X83050000Y7600000D03*
X83750000Y7600000D03*
G04 #@! TD*
D20*
G04 #@! TO.C,C70*
X19620000Y95900000D03*
X20580000Y95900000D03*
G04 #@! TD*
D13*
G04 #@! TO.C,R39*
X18890000Y26000000D03*
X19910000Y26000000D03*
G04 #@! TD*
D26*
G04 #@! TO.C,C6*
X46580000Y34000000D03*
X45620000Y34000000D03*
G04 #@! TD*
D27*
G04 #@! TO.C,J5*
X47775000Y16725000D03*
X46675000Y16725000D03*
X45575000Y16725000D03*
X44475000Y16725000D03*
X43375000Y16725000D03*
X42275000Y16725000D03*
X41175000Y16725000D03*
X40075000Y16725000D03*
X39125000Y16725000D03*
D28*
X38175000Y6225000D03*
D29*
X38175000Y12425000D03*
D30*
X38175000Y2075000D03*
D29*
X49325000Y16725000D03*
D31*
X51675000Y1625000D03*
G04 #@! TD*
D32*
G04 #@! TO.C,U16*
X21487500Y10475000D03*
X21487500Y9825000D03*
X21487500Y9175000D03*
X21487500Y8525000D03*
X25712500Y8525000D03*
X25712500Y9175000D03*
X25712500Y9825000D03*
X25712500Y10475000D03*
G04 #@! TD*
D18*
G04 #@! TO.C,J7*
X7000000Y50000000D03*
D19*
X3850000Y53150000D03*
X3850000Y46850000D03*
X10150000Y53150000D03*
X10150000Y46850000D03*
G04 #@! TD*
D33*
G04 #@! TO.C,R20*
X44500000Y75025000D03*
X44500000Y73375000D03*
G04 #@! TD*
D21*
G04 #@! TO.C,C2*
X48325000Y52100000D03*
X49875000Y52100000D03*
G04 #@! TD*
D34*
G04 #@! TO.C,C48*
X24200000Y4875000D03*
X24200000Y3325000D03*
G04 #@! TD*
D35*
G04 #@! TO.C,R56*
X27400000Y46095000D03*
X27400000Y47115000D03*
G04 #@! TD*
D25*
G04 #@! TO.C,C43*
X25300000Y68720000D03*
X25300000Y69680000D03*
G04 #@! TD*
D36*
G04 #@! TO.C,D10*
X14400000Y14850000D03*
X14400000Y14150000D03*
G04 #@! TD*
D26*
G04 #@! TO.C,C50*
X26280000Y65900000D03*
X25320000Y65900000D03*
G04 #@! TD*
D37*
G04 #@! TO.C,C17*
X51100000Y49680000D03*
X51100000Y48720000D03*
G04 #@! TD*
D13*
G04 #@! TO.C,R5*
X40890000Y57300000D03*
X41910000Y57300000D03*
G04 #@! TD*
D12*
G04 #@! TO.C,R33*
X16587500Y33085000D03*
X16587500Y32065000D03*
G04 #@! TD*
D37*
G04 #@! TO.C,C72*
X27200000Y92180000D03*
X27200000Y91220000D03*
G04 #@! TD*
D32*
G04 #@! TO.C,U13*
X21487500Y64575000D03*
X21487500Y63925000D03*
X21487500Y63275000D03*
X21487500Y62625000D03*
X25712500Y62625000D03*
X25712500Y63275000D03*
X25712500Y63925000D03*
X25712500Y64575000D03*
G04 #@! TD*
D38*
G04 #@! TO.C,U8*
X31112500Y67700000D03*
X31112500Y68200000D03*
X31112500Y68700000D03*
X31112500Y69200000D03*
X31112500Y69700000D03*
X26887500Y69700000D03*
X26887500Y69200000D03*
X26887500Y68700000D03*
X26887500Y68200000D03*
X26887500Y67700000D03*
G04 #@! TD*
D39*
G04 #@! TO.C,U12*
X28237500Y3950000D03*
X28237500Y4900000D03*
X28237500Y5850000D03*
X25962500Y5850000D03*
X25962500Y4900000D03*
X25962500Y3950000D03*
G04 #@! TD*
D34*
G04 #@! TO.C,C13*
X52300000Y53375000D03*
X52300000Y51825000D03*
G04 #@! TD*
D35*
G04 #@! TO.C,R61*
X59737200Y77590000D03*
X59737200Y78610000D03*
G04 #@! TD*
D36*
G04 #@! TO.C,D8*
X14400000Y50950000D03*
X14400000Y50250000D03*
G04 #@! TD*
D20*
G04 #@! TO.C,C35*
X18720000Y30500000D03*
X19680000Y30500000D03*
G04 #@! TD*
G04 #@! TO.C,C26*
X40920000Y56300000D03*
X41880000Y56300000D03*
G04 #@! TD*
D40*
G04 #@! TO.C,D17*
X24700000Y89050000D03*
X24700000Y91150000D03*
G04 #@! TD*
D41*
G04 #@! TO.C,Xtal1*
X46650000Y35800000D03*
X46650000Y37200000D03*
X45550000Y37200000D03*
X45550000Y35800000D03*
G04 #@! TD*
D20*
G04 #@! TO.C,C33*
X18720000Y48400000D03*
X19680000Y48400000D03*
G04 #@! TD*
D18*
G04 #@! TO.C,J13*
X83000000Y14000000D03*
D19*
X79850000Y17150000D03*
X79850000Y10850000D03*
X86150000Y17150000D03*
X86150000Y10850000D03*
G04 #@! TD*
D22*
G04 #@! TO.C,R25*
X30297500Y35075000D03*
X29277500Y35075000D03*
G04 #@! TD*
G04 #@! TO.C,R23*
X30410000Y71000000D03*
X29390000Y71000000D03*
G04 #@! TD*
D16*
G04 #@! TO.C,J1*
X48400000Y30300000D03*
D17*
X50940000Y30300000D03*
X53480000Y30300000D03*
G04 #@! TD*
D25*
G04 #@! TO.C,C89*
X55900000Y34020000D03*
X55900000Y34980000D03*
G04 #@! TD*
D42*
G04 #@! TO.C,U32*
X40103500Y48800000D03*
X40103500Y48400000D03*
X40103500Y48000000D03*
X40103500Y47600000D03*
X40103500Y47200000D03*
X40103500Y46800000D03*
X40103500Y46400000D03*
X40103500Y46000000D03*
X40103500Y45600000D03*
X40103500Y45200000D03*
X40103500Y44800000D03*
X40103500Y44400000D03*
X40103500Y44000000D03*
X40103500Y43600000D03*
X40103500Y43200000D03*
X40103500Y42800000D03*
X40103500Y42400000D03*
X40103500Y42000000D03*
X40103500Y41600000D03*
X40103500Y41200000D03*
D43*
X41200000Y40103500D03*
X41600000Y40103500D03*
X42000000Y40103500D03*
X42400000Y40103500D03*
X42800000Y40103500D03*
X43200000Y40103500D03*
X43600000Y40103500D03*
X44000000Y40103500D03*
X44400000Y40103500D03*
X44800000Y40103500D03*
X45200000Y40103500D03*
X45600000Y40103500D03*
X46000000Y40103500D03*
X46400000Y40103500D03*
X46800000Y40103500D03*
X47200000Y40103500D03*
X47600000Y40103500D03*
X48000000Y40103500D03*
X48400000Y40103500D03*
X48800000Y40103500D03*
D42*
X49896500Y41200000D03*
X49896500Y41600000D03*
X49896500Y42000000D03*
X49896500Y42400000D03*
X49896500Y42800000D03*
X49896500Y43200000D03*
X49896500Y43600000D03*
X49896500Y44000000D03*
X49896500Y44400000D03*
X49896500Y44800000D03*
X49896500Y45200000D03*
X49896500Y45600000D03*
X49896500Y46000000D03*
X49896500Y46400000D03*
X49896500Y46800000D03*
X49896500Y47200000D03*
X49896500Y47600000D03*
X49896500Y48000000D03*
X49896500Y48400000D03*
X49896500Y48800000D03*
D43*
X48800000Y49896500D03*
X48400000Y49896500D03*
X48000000Y49896500D03*
X47600000Y49896500D03*
X47200000Y49896500D03*
X46800000Y49896500D03*
X46400000Y49896500D03*
X46000000Y49896500D03*
X45600000Y49896500D03*
X45200000Y49896500D03*
X44800000Y49896500D03*
X44400000Y49896500D03*
X44000000Y49896500D03*
X43600000Y49896500D03*
X43200000Y49896500D03*
X42800000Y49896500D03*
X42400000Y49896500D03*
X42000000Y49896500D03*
X41600000Y49896500D03*
X41200000Y49896500D03*
D44*
X43866667Y46133333D03*
D45*
X43866667Y46133333D03*
D44*
X43866667Y45000000D03*
D45*
X43866667Y45000000D03*
D44*
X43866667Y43866667D03*
D45*
X43866667Y43866667D03*
D44*
X45000000Y46133333D03*
D45*
X45000000Y46133333D03*
D44*
X45000000Y45000000D03*
D45*
X45000000Y45000000D03*
D44*
X45000000Y43866667D03*
D45*
X45000000Y43866667D03*
D44*
X46133333Y46133333D03*
D45*
X46133333Y46133333D03*
D44*
X46133333Y45000000D03*
D45*
X46133333Y45000000D03*
D44*
X46133333Y43866667D03*
D45*
X46133333Y43866667D03*
G04 #@! TD*
D23*
G04 #@! TO.C,D12*
X83050000Y43600000D03*
X83750000Y43600000D03*
G04 #@! TD*
D38*
G04 #@! TO.C,U11*
X31112500Y13700000D03*
X31112500Y14200000D03*
X31112500Y14700000D03*
X31112500Y15200000D03*
X31112500Y15700000D03*
X26887500Y15700000D03*
X26887500Y15200000D03*
X26887500Y14700000D03*
X26887500Y14200000D03*
X26887500Y13700000D03*
G04 #@! TD*
D35*
G04 #@! TO.C,R55*
X27400000Y64190000D03*
X27400000Y65210000D03*
G04 #@! TD*
D46*
G04 #@! TO.C,L3*
X58387500Y73600000D03*
X56812500Y73600000D03*
G04 #@! TD*
D25*
G04 #@! TO.C,C88*
X55800000Y47020000D03*
X55800000Y47980000D03*
G04 #@! TD*
D13*
G04 #@! TO.C,R43*
X18890000Y62000000D03*
X19910000Y62000000D03*
G04 #@! TD*
D36*
G04 #@! TO.C,D7*
X14400000Y69050000D03*
X14400000Y68350000D03*
G04 #@! TD*
D24*
G04 #@! TO.C,U7*
X22512500Y13725000D03*
X22512500Y14375000D03*
X22512500Y15025000D03*
X22512500Y15675000D03*
X18287500Y15675000D03*
X18287500Y15025000D03*
X18287500Y14375000D03*
X18287500Y13725000D03*
G04 #@! TD*
D47*
G04 #@! TO.C,C84*
X64400000Y81050000D03*
X64400000Y82950000D03*
G04 #@! TD*
D22*
G04 #@! TO.C,R52*
X19910000Y8900000D03*
X18890000Y8900000D03*
G04 #@! TD*
D48*
G04 #@! TO.C,L4*
X24700000Y86800000D03*
X21900000Y86800000D03*
G04 #@! TD*
D47*
G04 #@! TO.C,C83*
X66400000Y81050000D03*
X66400000Y82950000D03*
G04 #@! TD*
D12*
G04 #@! TO.C,R78*
X21050000Y84410000D03*
X21050000Y83390000D03*
G04 #@! TD*
D22*
G04 #@! TO.C,R71*
X56810000Y84225000D03*
X55790000Y84225000D03*
G04 #@! TD*
D49*
G04 #@! TO.C,D6*
X41750000Y91500000D03*
X41050000Y91500000D03*
G04 #@! TD*
D39*
G04 #@! TO.C,U19*
X17237500Y27850000D03*
X17237500Y28800000D03*
X17237500Y29750000D03*
X14962500Y29750000D03*
X14962500Y28800000D03*
X14962500Y27850000D03*
G04 #@! TD*
G04 #@! TO.C,U18*
X17237500Y45850000D03*
X17237500Y46800000D03*
X17237500Y47750000D03*
X14962500Y47750000D03*
X14962500Y46800000D03*
X14962500Y45850000D03*
G04 #@! TD*
D13*
G04 #@! TO.C,R19*
X30690000Y48300000D03*
X31710000Y48300000D03*
G04 #@! TD*
D25*
G04 #@! TO.C,C69*
X23800000Y93820000D03*
X23800000Y94780000D03*
G04 #@! TD*
D50*
G04 #@! TO.C,REF\u002A\u002A*
X3000000Y3000000D03*
G04 #@! TD*
D51*
G04 #@! TO.C,U23*
X74950000Y34100000D03*
X75450000Y34100000D03*
X75950000Y34100000D03*
X76450000Y34100000D03*
X76450000Y36900000D03*
X75950000Y36900000D03*
X75450000Y36900000D03*
X74950000Y36900000D03*
G04 #@! TD*
D52*
G04 #@! TO.C,D15*
X55400000Y95250000D03*
X55400000Y98750000D03*
G04 #@! TD*
D33*
G04 #@! TO.C,R16*
X46000000Y90025000D03*
X46000000Y88375000D03*
G04 #@! TD*
D22*
G04 #@! TO.C,R26*
X30310000Y17000000D03*
X29290000Y17000000D03*
G04 #@! TD*
D53*
G04 #@! TO.C,Q1*
X58600000Y98000000D03*
X58600000Y96100000D03*
X60475000Y97050000D03*
G04 #@! TD*
D37*
G04 #@! TO.C,C78*
X57000000Y87605000D03*
X57000000Y86645000D03*
G04 #@! TD*
D13*
G04 #@! TO.C,R4*
X30690000Y30400000D03*
X31710000Y30400000D03*
G04 #@! TD*
D32*
G04 #@! TO.C,U14*
X21487500Y46480000D03*
X21487500Y45830000D03*
X21487500Y45180000D03*
X21487500Y44530000D03*
X25712500Y44530000D03*
X25712500Y45180000D03*
X25712500Y45830000D03*
X25712500Y46480000D03*
G04 #@! TD*
D47*
G04 #@! TO.C,C85*
X62400000Y81050000D03*
X62400000Y82950000D03*
G04 #@! TD*
D23*
G04 #@! TO.C,D20*
X65050000Y25600000D03*
X65750000Y25600000D03*
G04 #@! TD*
D18*
G04 #@! TO.C,J11*
X83000000Y50000000D03*
D19*
X79850000Y53150000D03*
X79850000Y46850000D03*
X86150000Y53150000D03*
X86150000Y46850000D03*
G04 #@! TD*
D34*
G04 #@! TO.C,C7*
X31500000Y98775000D03*
X31500000Y97225000D03*
G04 #@! TD*
D20*
G04 #@! TO.C,C19*
X40820000Y51100000D03*
X41780000Y51100000D03*
G04 #@! TD*
D25*
G04 #@! TO.C,C10*
X30200000Y96920000D03*
X30200000Y97880000D03*
G04 #@! TD*
D54*
G04 #@! TO.C,U31*
X58450000Y36900000D03*
X57950000Y36900000D03*
X57450000Y36900000D03*
X56950000Y36900000D03*
X56950000Y34100000D03*
X57450000Y34100000D03*
X57950000Y34100000D03*
X58450000Y34100000D03*
G04 #@! TD*
D25*
G04 #@! TO.C,C44*
X25300000Y50720000D03*
X25300000Y51680000D03*
G04 #@! TD*
G04 #@! TO.C,C87*
X55900000Y36020000D03*
X55900000Y36980000D03*
G04 #@! TD*
D35*
G04 #@! TO.C,R76*
X45800000Y53590000D03*
X45800000Y54610000D03*
G04 #@! TD*
D55*
G04 #@! TO.C,LED1*
X38100000Y98775000D03*
X38100000Y97025000D03*
G04 #@! TD*
D26*
G04 #@! TO.C,C67*
X15980000Y86700000D03*
X15020000Y86700000D03*
G04 #@! TD*
D20*
G04 #@! TO.C,C36*
X20707500Y35075000D03*
X21667500Y35075000D03*
G04 #@! TD*
D56*
G04 #@! TO.C,Q3*
X56500000Y91600000D03*
X56500000Y93500000D03*
X54625000Y92550000D03*
G04 #@! TD*
D22*
G04 #@! TO.C,R40*
X19910000Y27000000D03*
X18890000Y27000000D03*
G04 #@! TD*
D13*
G04 #@! TO.C,R62*
X57990000Y79500000D03*
X59010000Y79500000D03*
G04 #@! TD*
D55*
G04 #@! TO.C,LED2*
X51900000Y98775000D03*
X51900000Y97025000D03*
G04 #@! TD*
D13*
G04 #@! TO.C,R41*
X27290000Y27200000D03*
X28310000Y27200000D03*
G04 #@! TD*
D26*
G04 #@! TO.C,C25*
X50280000Y90180000D03*
X49320000Y90180000D03*
G04 #@! TD*
D57*
G04 #@! TO.C,U27*
X18250000Y77900000D03*
X18250000Y80200000D03*
D58*
X11950000Y80200000D03*
D57*
X18250000Y82500000D03*
G04 #@! TD*
D25*
G04 #@! TO.C,C62*
X73700000Y36020000D03*
X73700000Y36980000D03*
G04 #@! TD*
D59*
G04 #@! TO.C,TVS1*
X44850000Y90975000D03*
X45550000Y90975000D03*
X45200000Y91825000D03*
G04 #@! TD*
D60*
G04 #@! TO.C,U26*
X58425000Y93500000D03*
X58425000Y92550000D03*
X58425000Y91600000D03*
X60700000Y91600000D03*
X60700000Y92550000D03*
X60700000Y93500000D03*
G04 #@! TD*
D26*
G04 #@! TO.C,C30*
X44900000Y18300000D03*
X43940000Y18300000D03*
G04 #@! TD*
D25*
G04 #@! TO.C,C42*
X25300000Y12820000D03*
X25300000Y13780000D03*
G04 #@! TD*
D61*
G04 #@! TO.C,C81*
X23975000Y75800000D03*
X22425000Y75800000D03*
G04 #@! TD*
D25*
G04 #@! TO.C,C40*
X25300000Y48820000D03*
X25300000Y49780000D03*
G04 #@! TD*
D13*
G04 #@! TO.C,R1*
X30690000Y12300000D03*
X31710000Y12300000D03*
G04 #@! TD*
G04 #@! TO.C,R22*
X30690000Y66300000D03*
X31710000Y66300000D03*
G04 #@! TD*
D22*
G04 #@! TO.C,R54*
X28310000Y8100000D03*
X27290000Y8100000D03*
G04 #@! TD*
D62*
G04 #@! TO.C,C73*
X54737200Y76884600D03*
X54737200Y74984600D03*
G04 #@! TD*
D25*
G04 #@! TO.C,C59*
X73900000Y47020000D03*
X73900000Y47980000D03*
G04 #@! TD*
D63*
G04 #@! TO.C,R10*
X44460624Y21560624D03*
X43739376Y20839376D03*
G04 #@! TD*
D13*
G04 #@! TO.C,R13*
X39090001Y18400000D03*
X40109999Y18400000D03*
G04 #@! TD*
D20*
G04 #@! TO.C,C31*
X18720000Y66395000D03*
X19680000Y66395000D03*
G04 #@! TD*
D32*
G04 #@! TO.C,U15*
X21487500Y28575000D03*
X21487500Y27925000D03*
X21487500Y27275000D03*
X21487500Y26625000D03*
X25712500Y26625000D03*
X25712500Y27275000D03*
X25712500Y27925000D03*
X25712500Y28575000D03*
G04 #@! TD*
D22*
G04 #@! TO.C,R44*
X19910000Y63000000D03*
X18890000Y63000000D03*
G04 #@! TD*
D51*
G04 #@! TO.C,U30*
X57050000Y45100000D03*
X57550000Y45100000D03*
X58050000Y45100000D03*
X58550000Y45100000D03*
X58550000Y47900000D03*
X58050000Y47900000D03*
X57550000Y47900000D03*
X57050000Y47900000D03*
G04 #@! TD*
D36*
G04 #@! TO.C,D9*
X14400000Y32950000D03*
X14400000Y32250000D03*
G04 #@! TD*
D64*
G04 #@! TO.C,C77*
X28400000Y91025000D03*
X28400000Y92575000D03*
G04 #@! TD*
D24*
G04 #@! TO.C,U5*
X22512500Y49725000D03*
X22512500Y50375000D03*
X22512500Y51025000D03*
X22512500Y51675000D03*
X18287500Y51675000D03*
X18287500Y51025000D03*
X18287500Y50375000D03*
X18287500Y49725000D03*
G04 #@! TD*
D26*
G04 #@! TO.C,C53*
X26280000Y11800000D03*
X25320000Y11800000D03*
G04 #@! TD*
G04 #@! TO.C,C9*
X52080000Y45500000D03*
X51120000Y45500000D03*
G04 #@! TD*
D65*
G04 #@! TO.C,U3*
X52245000Y86350000D03*
X50975000Y86350000D03*
X49705000Y86350000D03*
X48435000Y86350000D03*
X47165000Y86350000D03*
X45895000Y86350000D03*
X44625000Y86350000D03*
X43355000Y86350000D03*
X43355000Y77050000D03*
X44625000Y77050000D03*
X45895000Y77050000D03*
X47165000Y77050000D03*
X48435000Y77050000D03*
X49705000Y77050000D03*
X50975000Y77050000D03*
X52245000Y77050000D03*
G04 #@! TD*
D25*
G04 #@! TO.C,C45*
X25287500Y32795000D03*
X25287500Y33755000D03*
G04 #@! TD*
D66*
G04 #@! TO.C,L2*
X12600000Y94300000D03*
X15400000Y94300000D03*
G04 #@! TD*
D67*
G04 #@! TO.C,Q2*
X19650000Y88037500D03*
X17750000Y88037500D03*
X18700000Y86162500D03*
G04 #@! TD*
D23*
G04 #@! TO.C,D19*
X65000000Y7600000D03*
X65700000Y7600000D03*
G04 #@! TD*
D36*
G04 #@! TO.C,D5*
X37000000Y85550000D03*
X37000000Y84850000D03*
G04 #@! TD*
D25*
G04 #@! TO.C,C39*
X25300000Y66865000D03*
X25300000Y67825000D03*
G04 #@! TD*
D33*
G04 #@! TO.C,R74*
X58500000Y32525000D03*
X58500000Y30875000D03*
G04 #@! TD*
D20*
G04 #@! TO.C,C32*
X20820000Y71000000D03*
X21780000Y71000000D03*
G04 #@! TD*
D13*
G04 #@! TO.C,R37*
X15577500Y31075000D03*
X16597500Y31075000D03*
G04 #@! TD*
D34*
G04 #@! TO.C,C8*
X38900000Y36575000D03*
X38900000Y35025000D03*
G04 #@! TD*
D50*
G04 #@! TO.C,REF\u002A\u002A*
X87000000Y97000000D03*
G04 #@! TD*
D61*
G04 #@! TO.C,C28*
X52375000Y74100000D03*
X50825000Y74100000D03*
G04 #@! TD*
G04 #@! TO.C,C80*
X18875000Y75800000D03*
X17325000Y75800000D03*
G04 #@! TD*
D18*
G04 #@! TO.C,J6*
X7000000Y68000000D03*
D19*
X3850000Y71150000D03*
X3850000Y64850000D03*
X10150000Y71150000D03*
X10150000Y64850000D03*
G04 #@! TD*
D68*
G04 #@! TO.C,D16*
X17300000Y95450000D03*
X17300000Y93350000D03*
G04 #@! TD*
D25*
G04 #@! TO.C,C46*
X25300000Y14720000D03*
X25300000Y15680000D03*
G04 #@! TD*
D22*
G04 #@! TO.C,R46*
X28310000Y62200000D03*
X27290000Y62200000D03*
G04 #@! TD*
D25*
G04 #@! TO.C,C61*
X73900000Y45020000D03*
X73900000Y45980000D03*
G04 #@! TD*
D22*
G04 #@! TO.C,R48*
X19910000Y45105000D03*
X18890000Y45105000D03*
G04 #@! TD*
D39*
G04 #@! TO.C,U20*
X17237500Y9750000D03*
X17237500Y10700000D03*
X17237500Y11650000D03*
X14962500Y11650000D03*
X14962500Y10700000D03*
X14962500Y9750000D03*
G04 #@! TD*
D35*
G04 #@! TO.C,R66*
X26200000Y91190000D03*
X26200000Y92210000D03*
G04 #@! TD*
D25*
G04 #@! TO.C,C22*
X38900000Y38820000D03*
X38900000Y39780000D03*
G04 #@! TD*
D14*
G04 #@! TO.C,R73*
X58500000Y49475000D03*
X58500000Y51125000D03*
G04 #@! TD*
D33*
G04 #@! TO.C,R15*
X44500000Y90025000D03*
X44500000Y88375000D03*
G04 #@! TD*
D18*
G04 #@! TO.C,J16*
X65000000Y50000000D03*
D19*
X61850000Y53150000D03*
X61850000Y46850000D03*
X68150000Y53150000D03*
X68150000Y46850000D03*
G04 #@! TD*
D20*
G04 #@! TO.C,C56*
X14520000Y26600000D03*
X15480000Y26600000D03*
G04 #@! TD*
D69*
G04 #@! TO.C,L1*
X48300000Y55500000D03*
X50300000Y55500000D03*
G04 #@! TD*
D70*
G04 #@! TO.C,D29*
X53700000Y13225000D03*
D71*
X54200000Y13225000D03*
D70*
X54700000Y13225000D03*
D72*
X54850000Y13900000D03*
D70*
X54700000Y14575000D03*
D71*
X54200000Y14575000D03*
D70*
X53700000Y14575000D03*
D72*
X53550000Y13900000D03*
G04 #@! TD*
D13*
G04 #@! TO.C,R36*
X15590000Y49010000D03*
X16610000Y49010000D03*
G04 #@! TD*
G04 #@! TO.C,R49*
X27290000Y45105000D03*
X28310000Y45105000D03*
G04 #@! TD*
D25*
G04 #@! TO.C,C86*
X55800000Y45020000D03*
X55800000Y45980000D03*
G04 #@! TD*
D22*
G04 #@! TO.C,R79*
X23060000Y84400000D03*
X22040000Y84400000D03*
G04 #@! TD*
D73*
G04 #@! TO.C,C4*
X24150000Y74000000D03*
X22250000Y74000000D03*
G04 #@! TD*
D35*
G04 #@! TO.C,R77*
X46800000Y53590000D03*
X46800000Y54610000D03*
G04 #@! TD*
D23*
G04 #@! TO.C,D18*
X65050000Y61600000D03*
X65750000Y61600000D03*
G04 #@! TD*
D18*
G04 #@! TO.C,J10*
X83000000Y68000000D03*
D19*
X79850000Y71150000D03*
X79850000Y64850000D03*
X86150000Y71150000D03*
X86150000Y64850000D03*
G04 #@! TD*
D26*
G04 #@! TO.C,C68*
X22480000Y94900000D03*
X21520000Y94900000D03*
G04 #@! TD*
D60*
G04 #@! TO.C,U21*
X14062500Y5450000D03*
X14062500Y4500000D03*
X14062500Y3550000D03*
X16337500Y3550000D03*
X16337500Y5450000D03*
G04 #@! TD*
D22*
G04 #@! TO.C,R42*
X28310000Y26200000D03*
X27290000Y26200000D03*
G04 #@! TD*
G04 #@! TO.C,R8*
X49009999Y18300000D03*
X47990001Y18300000D03*
G04 #@! TD*
D23*
G04 #@! TO.C,D21*
X65050000Y43600000D03*
X65750000Y43600000D03*
G04 #@! TD*
D13*
G04 #@! TO.C,R63*
X58990000Y94800000D03*
X60010000Y94800000D03*
G04 #@! TD*
D74*
G04 #@! TO.C,U29*
X59930000Y86302500D03*
X58980000Y86302500D03*
X58030000Y86302500D03*
X58030000Y84027500D03*
X58980000Y84027500D03*
X59930000Y84027500D03*
G04 #@! TD*
D18*
G04 #@! TO.C,J8*
X7000000Y32000000D03*
D19*
X3850000Y35150000D03*
X3850000Y28850000D03*
X10150000Y35150000D03*
X10150000Y28850000D03*
G04 #@! TD*
D12*
G04 #@! TO.C,R59*
X57100000Y98110000D03*
X57100000Y97090000D03*
G04 #@! TD*
D24*
G04 #@! TO.C,U4*
X22542500Y67720000D03*
X22542500Y68370000D03*
X22542500Y69020000D03*
X22542500Y69670000D03*
X18317500Y69670000D03*
X18317500Y69020000D03*
X18317500Y68370000D03*
X18317500Y67720000D03*
G04 #@! TD*
D25*
G04 #@! TO.C,C47*
X29700000Y4920000D03*
X29700000Y5880000D03*
G04 #@! TD*
D61*
G04 #@! TO.C,C65*
X56812200Y79200000D03*
X55262200Y79200000D03*
G04 #@! TD*
D54*
G04 #@! TO.C,U22*
X76450000Y47900000D03*
X75950000Y47900000D03*
X75450000Y47900000D03*
X74950000Y47900000D03*
X74950000Y45100000D03*
X75450000Y45100000D03*
X75950000Y45100000D03*
X76450000Y45100000D03*
G04 #@! TD*
D75*
G04 #@! TO.C,U24*
X56599999Y75280800D03*
X57100001Y75280800D03*
X57600000Y75280800D03*
X58099999Y75280800D03*
X58600001Y75280800D03*
X58600001Y77719200D03*
X58099999Y77719200D03*
X57600000Y77719200D03*
X57100001Y77719200D03*
X56599999Y77719200D03*
D76*
X57600000Y76500000D03*
G04 #@! TD*
D77*
G04 #@! TO.C,U2*
X39975000Y54950000D03*
X39975000Y54450000D03*
X39975000Y53950000D03*
X39975000Y53450000D03*
X42825000Y53450000D03*
X42825000Y53950000D03*
X42825000Y54450000D03*
X42825000Y54950000D03*
D78*
X41400000Y54200000D03*
G04 #@! TD*
D73*
G04 #@! TO.C,C11*
X13350000Y75600000D03*
X11450000Y75600000D03*
G04 #@! TD*
D20*
G04 #@! TO.C,C29*
X51120000Y75310000D03*
X52080000Y75310000D03*
G04 #@! TD*
D34*
G04 #@! TO.C,C79*
X54500000Y85975000D03*
X54500000Y84425000D03*
G04 #@! TD*
D20*
G04 #@! TO.C,C34*
X20820000Y53000000D03*
X21780000Y53000000D03*
G04 #@! TD*
D21*
G04 #@! TO.C,C1*
X48325000Y53600000D03*
X49875000Y53600000D03*
G04 #@! TD*
D18*
G04 #@! TO.C,J17*
X65000000Y32000000D03*
D19*
X61850000Y35150000D03*
X61850000Y28850000D03*
X68150000Y35150000D03*
X68150000Y28850000D03*
G04 #@! TD*
D39*
G04 #@! TO.C,U17*
X17237500Y63845000D03*
X17237500Y64795000D03*
X17237500Y65745000D03*
X14962500Y65745000D03*
X14962500Y64795000D03*
X14962500Y63845000D03*
G04 #@! TD*
D13*
G04 #@! TO.C,R67*
X21490000Y95900000D03*
X22510000Y95900000D03*
G04 #@! TD*
D73*
G04 #@! TO.C,C66*
X14550000Y91700000D03*
X12650000Y91700000D03*
G04 #@! TD*
D35*
G04 #@! TO.C,R30*
X15600000Y13990000D03*
X15600000Y15010000D03*
G04 #@! TD*
D26*
G04 #@! TO.C,C16*
X52080000Y44500000D03*
X51120000Y44500000D03*
G04 #@! TD*
D35*
G04 #@! TO.C,R29*
X15587500Y32065000D03*
X15587500Y33085000D03*
G04 #@! TD*
D13*
G04 #@! TO.C,R38*
X15590000Y13000000D03*
X16610000Y13000000D03*
G04 #@! TD*
D18*
G04 #@! TO.C,J18*
X65000000Y14000000D03*
D19*
X61850000Y17150000D03*
X61850000Y10850000D03*
X68150000Y17150000D03*
X68150000Y10850000D03*
G04 #@! TD*
D18*
G04 #@! TO.C,J12*
X83000000Y32000000D03*
D19*
X79850000Y35150000D03*
X79850000Y28850000D03*
X86150000Y35150000D03*
X86150000Y28850000D03*
G04 #@! TD*
D50*
G04 #@! TO.C,REF\u002A\u002A*
X3000000Y97000000D03*
G04 #@! TD*
D22*
G04 #@! TO.C,R69*
X58710000Y82600000D03*
X57690000Y82600000D03*
G04 #@! TD*
D79*
G04 #@! TO.C,C20*
X36360589Y48339411D03*
X37039411Y47660589D03*
G04 #@! TD*
D14*
G04 #@! TO.C,R72*
X57000000Y49475000D03*
X57000000Y51125000D03*
G04 #@! TD*
D44*
G04 #@! TO.C,J4*
X48000000Y94550000D03*
D80*
X46400000Y97650000D03*
X43600000Y97650000D03*
D81*
X42000000Y94550000D03*
D82*
X48100000Y93450000D03*
X47350000Y93450000D03*
D83*
X46750000Y93450000D03*
X45250000Y93450000D03*
X44250000Y93450000D03*
X43250000Y93450000D03*
D82*
X42650000Y93450000D03*
X41900000Y93450000D03*
X41900000Y93450000D03*
X42650000Y93450000D03*
D83*
X43750000Y93450000D03*
X44750000Y93450000D03*
X45750000Y93450000D03*
X46250000Y93450000D03*
D82*
X47350000Y93450000D03*
X48100000Y93450000D03*
D84*
X49320000Y93825000D03*
D85*
X49320000Y97650000D03*
D84*
X40680000Y93825000D03*
D85*
X40680000Y97650000D03*
G04 #@! TD*
D33*
G04 #@! TO.C,R21*
X46000000Y75025000D03*
X46000000Y73375000D03*
G04 #@! TD*
D22*
G04 #@! TO.C,R2*
X41910000Y58300000D03*
X40890000Y58300000D03*
G04 #@! TD*
D12*
G04 #@! TO.C,R14*
X36600000Y7210000D03*
X36600000Y6190000D03*
G04 #@! TD*
D73*
G04 #@! TO.C,C3*
X18950000Y74000000D03*
X17050000Y74000000D03*
G04 #@! TD*
D21*
G04 #@! TO.C,C64*
X14925000Y89400000D03*
X16475000Y89400000D03*
G04 #@! TD*
G04 #@! TO.C,C76*
X19825000Y98600000D03*
X21375000Y98600000D03*
G04 #@! TD*
D12*
G04 #@! TO.C,R64*
X25200000Y93210000D03*
X25200000Y92190000D03*
G04 #@! TD*
D86*
G04 #@! TO.C,SW2*
X43500000Y59650000D03*
X41900000Y59650000D03*
X41900000Y63750000D03*
X43500000Y63750000D03*
D87*
X44125000Y61700000D03*
G04 #@! TD*
D38*
G04 #@! TO.C,U9*
X31112500Y49700000D03*
X31112500Y50200000D03*
X31112500Y50700000D03*
X31112500Y51200000D03*
X31112500Y51700000D03*
X26887500Y51700000D03*
X26887500Y51200000D03*
X26887500Y50700000D03*
X26887500Y50200000D03*
X26887500Y49700000D03*
G04 #@! TD*
D25*
G04 #@! TO.C,C23*
X44300000Y36620000D03*
X44300000Y37580000D03*
G04 #@! TD*
D13*
G04 #@! TO.C,R6*
X46790000Y91600000D03*
X47810000Y91600000D03*
G04 #@! TD*
D23*
G04 #@! TO.C,D13*
X83050000Y25600000D03*
X83750000Y25600000D03*
G04 #@! TD*
D88*
G04 #@! TO.C,C21*
X36360589Y41960589D03*
X37039411Y42639411D03*
G04 #@! TD*
D38*
G04 #@! TO.C,U10*
X31112500Y31800000D03*
X31112500Y32300000D03*
X31112500Y32800000D03*
X31112500Y33300000D03*
X31112500Y33800000D03*
X26887500Y33800000D03*
X26887500Y33300000D03*
X26887500Y32800000D03*
X26887500Y32300000D03*
X26887500Y31800000D03*
G04 #@! TD*
D89*
G04 #@! TO.C,U1*
X23050000Y82500000D03*
X23050000Y80200000D03*
D90*
X29350000Y80200000D03*
D89*
X23050000Y77900000D03*
G04 #@! TD*
D73*
G04 #@! TO.C,C12*
X29350000Y75600000D03*
X27450000Y75600000D03*
G04 #@! TD*
D13*
G04 #@! TO.C,R35*
X15590000Y67000000D03*
X16610000Y67000000D03*
G04 #@! TD*
D91*
G04 #@! TO.C,R60*
X16325000Y87900000D03*
X14675000Y87900000D03*
G04 #@! TD*
D12*
G04 #@! TO.C,R34*
X16600000Y15010000D03*
X16600000Y13990000D03*
G04 #@! TD*
D20*
G04 #@! TO.C,C38*
X20820000Y17000000D03*
X21780000Y17000000D03*
G04 #@! TD*
D23*
G04 #@! TO.C,D11*
X83050000Y61600000D03*
X83750000Y61600000D03*
G04 #@! TD*
D34*
G04 #@! TO.C,C63*
X77000000Y42475000D03*
X77000000Y40925000D03*
G04 #@! TD*
D35*
G04 #@! TO.C,R57*
X27400000Y28190000D03*
X27400000Y29210000D03*
G04 #@! TD*
D21*
G04 #@! TO.C,C24*
X49025000Y91400000D03*
X50575000Y91400000D03*
G04 #@! TD*
D35*
G04 #@! TO.C,R28*
X15600000Y49990000D03*
X15600000Y51010000D03*
G04 #@! TD*
G04 #@! TO.C,R58*
X27400000Y10115000D03*
X27400000Y11135000D03*
G04 #@! TD*
D23*
G04 #@! TO.C,D2*
X50950000Y32800000D03*
X51650000Y32800000D03*
G04 #@! TD*
D37*
G04 #@! TO.C,C18*
X45800000Y52000000D03*
X45800000Y51040000D03*
G04 #@! TD*
D35*
G04 #@! TO.C,R68*
X56000000Y85215000D03*
X56000000Y86235000D03*
G04 #@! TD*
D22*
G04 #@! TO.C,R50*
X28310000Y44105000D03*
X27290000Y44105000D03*
G04 #@! TD*
D36*
G04 #@! TO.C,D3*
X47800000Y59400000D03*
X47800000Y58700000D03*
G04 #@! TD*
D21*
G04 #@! TO.C,C49*
X26325000Y2200000D03*
X27875000Y2200000D03*
G04 #@! TD*
D92*
G04 #@! TO.C,R9*
X47860624Y20939376D03*
X47139376Y21660624D03*
G04 #@! TD*
D12*
G04 #@! TO.C,R31*
X16600000Y69010000D03*
X16600000Y67990000D03*
G04 #@! TD*
D25*
G04 #@! TO.C,C58*
X12600000Y3520000D03*
X12600000Y4480000D03*
G04 #@! TD*
D50*
G04 #@! TO.C,REF\u002A\u002A*
X87000000Y3000000D03*
G04 #@! TD*
D13*
G04 #@! TO.C,R65*
X19590000Y94900000D03*
X20610000Y94900000D03*
G04 #@! TD*
D93*
G04 #@! TO.C,L5*
X64400000Y87200000D03*
X64400000Y84800000D03*
G04 #@! TD*
D22*
G04 #@! TO.C,R12*
X42410000Y18300000D03*
X41390000Y18300000D03*
G04 #@! TD*
D26*
G04 #@! TO.C,C52*
X26280000Y29900000D03*
X25320000Y29900000D03*
G04 #@! TD*
D20*
G04 #@! TO.C,C55*
X14520000Y44600000D03*
X15480000Y44600000D03*
G04 #@! TD*
D12*
G04 #@! TO.C,R32*
X16600000Y51020000D03*
X16600000Y50000000D03*
G04 #@! TD*
D13*
G04 #@! TO.C,R45*
X27290000Y63200000D03*
X28310000Y63200000D03*
G04 #@! TD*
D94*
G04 #@! TO.C,U25*
X19012500Y92950000D03*
X19012500Y92450000D03*
X19012500Y91950000D03*
X19012500Y91450000D03*
X19012500Y90950000D03*
X19012500Y90450000D03*
D95*
X19750000Y89712500D03*
X20250000Y89712500D03*
X20750000Y89712500D03*
X21250000Y89712500D03*
X21750000Y89712500D03*
X22250000Y89712500D03*
D94*
X22987500Y90450000D03*
X22987500Y90950000D03*
X22987500Y91450000D03*
X22987500Y91950000D03*
X22987500Y92450000D03*
X22987500Y92950000D03*
D95*
X22250000Y93687500D03*
X21750000Y93687500D03*
X21250000Y93687500D03*
X20750000Y93687500D03*
X20250000Y93687500D03*
X19750000Y93687500D03*
D96*
X21000000Y91700000D03*
G04 #@! TD*
D21*
G04 #@! TO.C,C14*
X50425000Y36900000D03*
X51975000Y36900000D03*
G04 #@! TD*
D64*
G04 #@! TO.C,C75*
X29900000Y91025000D03*
X29900000Y92575000D03*
G04 #@! TD*
D20*
G04 #@! TO.C,C57*
X14520000Y8400000D03*
X15480000Y8400000D03*
G04 #@! TD*
D37*
G04 #@! TO.C,C82*
X61200000Y85205000D03*
X61200000Y84245000D03*
G04 #@! TD*
D26*
G04 #@! TO.C,C51*
X26280000Y47805000D03*
X25320000Y47805000D03*
G04 #@! TD*
D35*
G04 #@! TO.C,R27*
X15600000Y67990000D03*
X15600000Y69010000D03*
G04 #@! TD*
D20*
G04 #@! TO.C,C54*
X14520000Y62595000D03*
X15480000Y62595000D03*
G04 #@! TD*
D25*
G04 #@! TO.C,C60*
X73700000Y34020000D03*
X73700000Y34980000D03*
G04 #@! TD*
D20*
G04 #@! TO.C,C37*
X18720000Y12400000D03*
X19680000Y12400000D03*
G04 #@! TD*
D33*
G04 #@! TO.C,R75*
X57000000Y32525000D03*
X57000000Y30875000D03*
G04 #@! TD*
D97*
G04 #@! TO.C,D4*
X47800000Y61150000D03*
X47800000Y61850000D03*
G04 #@! TD*
D20*
G04 #@! TO.C,C5*
X53540000Y16600000D03*
X54500000Y16600000D03*
G04 #@! TD*
D18*
G04 #@! TO.C,J9*
X7000000Y14000000D03*
D19*
X3850000Y17150000D03*
X3850000Y10850000D03*
X10150000Y17150000D03*
X10150000Y10850000D03*
G04 #@! TD*
D17*
G04 #@! TO.C,J3*
X34000000Y89300000D03*
X34000000Y96300000D03*
G04 #@! TD*
D98*
G04 #@! TO.C,H1*
X64600000Y94900000D03*
X64600000Y89900000D03*
X72100000Y94900000D03*
X72100000Y89900000D03*
G04 #@! TD*
D99*
G04 #@! TO.C,J14*
X78900000Y86200000D03*
D100*
X78900000Y92200000D03*
X83600000Y89200000D03*
G04 #@! TD*
M02*
