M48
; DRILL file {KiCad 9.0.6} date 2026-01-01T13:25:21-0800
; FORMAT={-:-/ absolute / metric / decimal}
; #@! TF.CreationDate,2026-01-01T13:25:21-08:00
; #@! TF.GenerationSoftware,Kicad,Pcbnew,9.0.6
; #@! TF.FileFunction,Plated,1,4,PTH
FMAT,2
METRIC
; #@! TA.AperFunction,Plated,PTH,ComponentDrill
T1C0.200
; #@! TA.AperFunction,Plated,PTH,ComponentDrill
T2C0.250
; #@! TA.AperFunction,Plated,PTH,ViaDrill
T3C0.254
; #@! TA.AperFunction,Plated,PTH,ComponentDrill
T4C0.600
; #@! TA.AperFunction,Plated,PTH,ComponentDrill
T5C1.000
; #@! TA.AperFunction,Plated,PTH,ComponentDrill
T6C1.200
; #@! TA.AperFunction,Plated,PTH,ComponentDrill
T7C1.500
; #@! TA.AperFunction,Plated,PTH,ComponentDrill
T8C1.600
; #@! TA.AperFunction,Plated,PTH,ComponentDrill
T9C1.850
%
G90
G05
T1
X20.025Y92.675
X20.025Y91.7
X20.025Y90.725
X21.0Y92.675
X21.0Y91.7
X21.0Y90.725
X21.975Y92.675
X21.975Y91.7
X21.975Y90.725
T2
X43.867Y46.133
X43.867Y45.0
X43.867Y43.867
X45.0Y46.133
X45.0Y45.0
X45.0Y43.867
X46.133Y46.133
X46.133Y45.0
X46.133Y43.867
T3
X10.7Y75.6
X11.8Y90.5
X11.8Y87.5
X11.9Y4.5
X11.9Y3.5
X13.2Y80.7
X13.2Y79.7
X13.6Y63.2
X13.6Y27.2
X13.6Y6.2
X13.625Y9.125
X13.65Y50.95
X13.75Y69.05
X13.8Y45.1
X13.9Y64.8
X13.9Y28.8
X13.9Y10.7
X14.0Y46.8
X14.1Y89.4
X14.2Y85.1
X14.45Y15.45
X14.5Y6.2
X14.8Y67.406
X14.8Y49.4
X14.8Y31.4
X14.9Y13.406
X14.9Y4.5
X15.2Y92.0
X15.2Y91.3
X15.9Y6.2
X16.0Y44.6
X16.0Y26.6
X16.0Y8.4
X16.1Y62.6
X16.2Y85.1
X16.3Y74.0
X16.4Y75.8
X16.6Y86.7
X16.8Y6.2
X16.9Y80.7
X16.9Y79.7
X17.1Y91.2
X17.3Y62.0
X17.3Y44.1
X17.3Y26.0
X17.3Y7.925
X17.9Y90.7
X17.9Y90.2
X17.9Y89.7
X17.9Y89.2
X17.9Y85.1
X18.0Y92.4
X18.1Y92.0
X18.2Y64.8
X18.2Y46.8
X18.2Y10.7
X18.3Y88.037
X18.3Y28.8
X18.7Y65.9
X18.7Y47.8
X18.7Y30.0
X18.72Y11.92
X19.6Y83.0
X19.6Y82.5
X19.6Y82.0
X19.6Y75.8
X19.6Y74.6
X19.6Y73.4
X19.7Y47.8
X20.2Y71.0
X20.2Y53.0
X20.2Y35.1
X20.3Y66.4
X20.3Y30.5
X20.3Y17.0
X20.4Y12.4
X21.0Y89.2
X21.1Y86.8
X21.488Y26.112
X21.5Y62.1
X21.5Y7.9
X21.6Y74.7
X21.6Y73.4
X21.668Y35.667
X21.7Y78.4
X21.7Y77.9
X21.7Y77.4
X21.7Y75.8
X21.78Y53.7
X21.78Y17.48
X21.8Y71.5
X21.9Y88.3
X22.2Y98.6
X22.2Y97.1
X22.5Y44.53
X23.0Y95.9
X23.0Y94.9
X23.2Y6.2
X23.4Y3.3
X23.7Y84.4
X23.8Y95.3
X23.8Y6.2
X24.15Y72.95
X24.6Y71.5
X24.6Y53.4
X24.6Y35.3
X24.6Y17.3
X24.7Y75.8
X24.7Y47.8
X24.7Y11.8
X24.8Y65.9
X25.3Y60.6
X25.5Y42.1
X25.7Y29.1
X25.712Y65.0
X25.712Y46.987
X25.712Y11.0
X25.8Y66.865
X25.8Y24.5
X25.8Y6.9
X25.9Y48.8
X25.9Y12.82
X26.0Y30.9
X26.0Y6.3
X26.7Y75.6
X26.8Y65.9
X26.8Y47.8
X26.8Y29.9
X26.8Y11.8
X26.9Y67.3
X26.9Y49.3
X26.9Y31.4
X26.9Y13.2
X27.18Y93.7
X27.4Y65.8
X27.4Y47.7
X27.4Y29.8
X27.4Y11.7
X27.4Y4.9
X27.4Y3.95
X27.9Y68.2
X28.0Y50.2
X28.0Y32.3
X28.2Y14.2
X28.2Y6.3
X28.4Y94.2
X28.4Y93.5
X28.5Y35.075
X28.7Y17.0
X28.8Y71.0
X28.8Y62.2
X28.8Y53.0
X28.8Y44.105
X28.9Y63.2
X28.9Y45.1
X28.9Y27.2
X28.9Y26.2
X28.9Y9.125
X28.9Y8.1
X29.6Y96.9
X29.7Y6.4
X29.7Y4.4
X30.2Y98.4
X30.7Y98.8
X31.1Y13.2
X31.112Y67.2
X31.112Y49.212
X31.112Y31.3
X31.525Y96.575
X32.3Y66.3
X32.3Y48.3
X32.3Y30.4
X32.3Y12.3
X33.4Y55.4
X33.8Y44.7
X34.95Y29.1
X35.6Y80.5
X35.9Y48.8
X35.9Y41.5
X36.1Y95.1
X36.4Y14.2
X36.4Y7.9
X37.0Y86.2
X37.0Y84.4
X37.1Y98.8
X37.325Y2.075
X37.525Y12.425
X38.2Y5.6
X38.4Y18.1
X38.9Y37.2
X38.9Y34.4
X39.125Y17.6
X39.4Y40.1
X39.5Y83.9
X39.5Y38.82
X39.8Y20.6
X39.9Y53.0
X40.1Y19.8
X40.2Y51.1
X40.3Y49.4
X40.5Y37.6
X40.5Y34.4
X40.5Y31.2
X40.5Y28.0
X40.5Y24.8
X40.8Y55.6
X40.85Y47.2
X40.85Y43.203
X41.0Y41.9
X41.1Y48.9
X41.175Y19.975
X41.2Y22.0
X41.664Y92.436
X41.69Y48.69
X41.7Y42.6
X41.88Y55.6
X41.881Y54.928
X42.275Y17.575
X42.3Y48.7
X42.4Y40.803
X42.41Y18.99
X42.8Y49.203
X42.8Y20.4
X43.0Y92.4
X43.1Y21.9
X43.2Y22.9
X43.25Y56.7
X43.35Y78.3
X43.5Y63.1
X43.5Y60.3
X43.7Y61.7
X43.7Y55.754
X43.94Y19.0
X44.3Y36.0
X44.4Y41.1
X44.5Y72.7
X44.5Y17.6
X44.9Y33.7
X44.9Y21.1
X44.9Y20.3
X45.2Y92.4
X45.3Y39.0
X45.3Y38.3
X45.493Y49.1
X45.6Y34.6
X45.74Y52.493
X45.8Y55.4
X46.0Y72.7
X46.0Y39.1
X46.1Y49.1
X46.6Y34.6
X46.7Y22.1
X46.8Y55.4
X46.8Y40.9
X47.0Y39.1
X47.165Y78.3
X47.2Y37.2
X47.3Y32.8
X47.8Y62.4
X47.8Y58.2
X47.8Y52.1
X47.8Y48.8
X47.92Y37.178
X48.3Y20.5
X48.379Y45.421
X48.397Y46.1
X48.4Y49.203
X48.435Y78.25
X48.65Y37.45
X49.0Y43.5
X49.0Y18.9
X49.008Y50.792
X49.024Y44.621
X49.05Y48.904
X49.05Y48.295
X49.05Y46.55
X49.7Y78.3
X49.7Y32.8
X49.9Y74.1
X49.9Y51.3
X49.9Y40.8
X50.0Y65.2
X50.2Y16.7
X50.42Y49.68
X50.425Y37.643
X50.5Y75.3
X50.7Y53.6
X50.9Y43.4
X50.975Y78.275
X51.0Y47.7
X51.4Y40.3
X51.4Y38.2
X51.6Y48.4
X51.975Y37.6
X52.245Y78.3
X52.3Y54.3
X52.3Y32.8
X52.4Y73.4
X52.6Y75.3
X52.6Y45.5
X52.6Y44.5
X52.7Y40.8
X52.7Y38.721
X52.7Y1.625
X52.8Y55.4
X52.8Y13.9
X52.9Y16.6
X53.1Y98.8
X54.0Y74.3
X54.4Y77.8
X54.5Y79.2
X54.5Y74.3
X54.9Y43.1
X55.0Y74.3
X55.1Y77.8
X55.1Y16.6
X55.2Y47.0
X55.2Y46.0
X55.2Y45.0
X55.2Y36.0
X55.3Y43.7
X55.3Y37.0
X55.3Y34.0
X55.3Y33.2
X55.5Y74.3
X55.5Y13.9
X55.614Y44.223
X55.7Y30.697
X55.8Y82.625
X56.4Y76.5
X56.5Y48.4
X56.5Y47.9
X56.9Y80.1
X57.0Y88.225
X57.0Y82.425
X57.3Y38.0
X57.6Y97.1
X58.06Y38.0
X58.55Y46.0
X58.8Y76.5
X58.9Y78.8
X58.9Y34.1
X59.2Y75.5
X59.2Y74.992
X59.887Y91.6
X60.4Y86.7
X60.4Y86.0
X62.1Y83.8
X62.4Y80.4
X62.7Y83.8
X64.1Y83.8
X64.4Y80.4
X64.7Y83.8
X66.1Y83.8
X66.3Y7.6
X66.4Y80.4
X66.4Y61.6
X66.4Y43.6
X66.5Y25.6
X66.7Y83.8
X66.8Y30.7
X67.3Y44.2
X73.1Y34.0
X73.12Y36.02
X73.12Y34.98
X73.3Y48.0
X73.3Y47.0
X73.3Y45.02
X74.3Y44.1
X74.7Y48.6
X75.0Y32.0
X75.2Y50.0
X76.3Y42.5
X76.325Y40.925
X76.9Y34.1
X84.4Y61.6
X84.4Y25.6
X84.4Y7.6
X84.5Y43.6
T5
X48.4Y30.3
X50.3Y64.48
X50.3Y61.94
X50.3Y59.4
X50.94Y30.3
X53.48Y30.3
T6
X7.0Y68.0
X7.0Y50.0
X7.0Y32.0
X7.0Y14.0
X65.0Y68.0
X65.0Y50.0
X65.0Y32.0
X65.0Y14.0
X83.0Y68.0
X83.0Y50.0
X83.0Y32.0
X83.0Y14.0
T7
X3.85Y71.15
X3.85Y64.85
X3.85Y53.15
X3.85Y46.85
X3.85Y35.15
X3.85Y28.85
X3.85Y17.15
X3.85Y10.85
X10.15Y71.15
X10.15Y64.85
X10.15Y53.15
X10.15Y46.85
X10.15Y35.15
X10.15Y28.85
X10.15Y17.15
X10.15Y10.85
X61.85Y71.15
X61.85Y64.85
X61.85Y53.15
X61.85Y46.85
X61.85Y35.15
X61.85Y28.85
X61.85Y17.15
X61.85Y10.85
X68.15Y71.15
X68.15Y64.85
X68.15Y53.15
X68.15Y46.85
X68.15Y35.15
X68.15Y28.85
X68.15Y17.15
X68.15Y10.85
X79.85Y71.15
X79.85Y64.85
X79.85Y53.15
X79.85Y46.85
X79.85Y35.15
X79.85Y28.85
X79.85Y17.15
X79.85Y10.85
X86.15Y71.15
X86.15Y64.85
X86.15Y53.15
X86.15Y46.85
X86.15Y35.15
X86.15Y28.85
X86.15Y17.15
X86.15Y10.85
T8
X78.9Y92.2
X78.9Y86.2
X83.6Y89.2
T9
X64.6Y94.9
X64.6Y89.9
X72.1Y94.9
X72.1Y89.9
T4
G00X40.68Y97.0
M15
G01X40.68Y98.3
M16
G05
G00X40.68Y93.325
M15
G01X40.68Y94.325
M16
G05
G00X49.32Y97.0
M15
G01X49.32Y98.3
M16
G05
G00X49.32Y93.325
M15
G01X49.32Y94.325
M16
G05
M30
