M48
; DRILL file {KiCad 9.0.6} date 2025-12-22T21:51:07-0800
; FORMAT={-:-/ absolute / inch / decimal}
; #@! TF.CreationDate,2025-12-22T21:51:07-08:00
; #@! TF.GenerationSoftware,Kicad,Pcbnew,9.0.6
; #@! TF.FileFunction,MixedPlating,1,4
FMAT,2
INCH
; #@! TA.AperFunction,Plated,PTH,ComponentDrill
T1C0.0079
; #@! TA.AperFunction,Plated,PTH,ComponentDrill
T2C0.0098
; #@! TA.AperFunction,Plated,PTH,ViaDrill
T3C0.0100
; #@! TA.AperFunction,Plated,PTH,ComponentDrill
T4C0.0236
; #@! TA.AperFunction,Plated,PTH,ComponentDrill
T5C0.0394
; #@! TA.AperFunction,Plated,PTH,ComponentDrill
T6C0.0472
; #@! TA.AperFunction,Plated,PTH,ComponentDrill
T7C0.0591
; #@! TA.AperFunction,Plated,PTH,ComponentDrill
T8C0.0630
; #@! TA.AperFunction,Plated,PTH,ComponentDrill
T9C0.0728
; #@! TA.AperFunction,NonPlated,NPTH,ComponentDrill
T10C0.0236
; #@! TA.AperFunction,NonPlated,NPTH,ComponentDrill
T11C0.0669
; #@! TA.AperFunction,NonPlated,NPTH,ComponentDrill
T12C0.1260
%
G90
G05
T1
X0.7884Y3.6486
X0.7884Y3.6102
X0.7884Y3.5719
X0.8268Y3.6486
X0.8268Y3.6102
X0.8268Y3.5719
X0.8652Y3.6486
X0.8652Y3.6102
X0.8652Y3.5719
T2
X1.727Y1.8163
X1.727Y1.7717
X1.727Y1.727
X1.7717Y1.8163
X1.7717Y1.7717
X1.7717Y1.727
X1.8163Y1.8163
X1.8163Y1.7717
X1.8163Y1.727
T3
X0.4213Y2.9764
X0.4646Y3.563
X0.4646Y3.4449
X0.4685Y0.1772
X0.4685Y0.1378
X0.5197Y3.1772
X0.5197Y3.1378
X0.5354Y2.4882
X0.5354Y1.0709
X0.5354Y0.2441
X0.5364Y0.3593
X0.5374Y2.0059
X0.5413Y2.7185
X0.5433Y1.7756
X0.5472Y2.5512
X0.5472Y1.1339
X0.5472Y0.4213
X0.5512Y1.8425
X0.5551Y3.5197
X0.5591Y3.3504
X0.5689Y0.6083
X0.5709Y0.2441
X0.5827Y2.6538
X0.5827Y1.9449
X0.5827Y1.2362
X0.5866Y0.5278
X0.5866Y0.1772
X0.5984Y3.622
X0.5984Y3.5945
X0.626Y0.2441
X0.6299Y1.7559
X0.6299Y1.0472
X0.6299Y0.3307
X0.6339Y2.4646
X0.6378Y3.3504
X0.6417Y2.9134
X0.6457Y2.9843
X0.6535Y3.4134
X0.6614Y0.2441
X0.6654Y3.1772
X0.6654Y3.1378
X0.6732Y3.5906
X0.6811Y2.4409
X0.6811Y1.7362
X0.6811Y1.0236
X0.6811Y0.312
X0.7047Y3.5709
X0.7047Y3.5512
X0.7047Y3.5315
X0.7047Y3.5118
X0.7047Y3.3504
X0.7087Y3.6378
X0.7126Y3.622
X0.7165Y2.5512
X0.7165Y1.8425
X0.7165Y0.4213
X0.7205Y3.466
X0.7205Y1.1339
X0.7362Y2.5945
X0.7362Y1.8819
X0.7362Y1.1811
X0.737Y0.4693
X0.7717Y3.2677
X0.7717Y3.248
X0.7717Y3.2283
X0.7717Y2.9843
X0.7717Y2.937
X0.7717Y2.8898
X0.7756Y1.8819
X0.7953Y2.7953
X0.7953Y2.0866
X0.7953Y1.3819
X0.7992Y2.6142
X0.7992Y1.2008
X0.7992Y0.6693
X0.8031Y0.4882
X0.8268Y3.5118
X0.8307Y3.4173
X0.846Y1.0281
X0.8465Y2.4449
X0.8465Y0.311
X0.8504Y2.9409
X0.8504Y2.8898
X0.8531Y1.4042
X0.8543Y3.0866
X0.8543Y3.0669
X0.8543Y3.0472
X0.8543Y2.9843
X0.8575Y2.1142
X0.8575Y0.6882
X0.8583Y2.815
X0.8622Y3.4764
X0.874Y3.8819
X0.874Y3.8228
X0.8858Y1.7531
X0.9055Y3.7756
X0.9055Y3.7362
X0.9134Y0.2441
X0.9213Y0.1299
X0.9331Y3.3228
X0.937Y3.752
X0.937Y0.2441
X0.9508Y2.872
X0.9685Y2.815
X0.9685Y2.1024
X0.9685Y1.3898
X0.9685Y0.6811
X0.9724Y2.9843
X0.9724Y1.8819
X0.9724Y0.4646
X0.9764Y2.5945
X0.9961Y2.3858
X1.0039Y1.6575
X1.0118Y1.1457
X1.0123Y2.5591
X1.0123Y1.8499
X1.0123Y0.4331
X1.0157Y2.6325
X1.0157Y0.9646
X1.0157Y0.2717
X1.0197Y1.9213
X1.0197Y0.5047
X1.0236Y1.2165
X1.0236Y0.248
X1.0512Y2.9764
X1.0551Y2.5945
X1.0551Y1.8819
X1.0551Y1.1772
X1.0551Y0.4646
X1.0591Y2.6496
X1.0591Y1.9409
X1.0591Y1.2362
X1.0591Y0.5197
X1.0701Y3.689
X1.0787Y2.5906
X1.0787Y1.878
X1.0787Y1.1732
X1.0787Y0.4606
X1.0787Y0.1929
X1.0787Y0.1555
X1.0984Y2.685
X1.1024Y1.9764
X1.1024Y1.2717
X1.1102Y0.5591
X1.1102Y0.248
X1.1181Y3.7087
X1.1181Y3.6811
X1.122Y1.3809
X1.1299Y0.6693
X1.1339Y2.7953
X1.1339Y2.4488
X1.1339Y2.0866
X1.1339Y1.7364
X1.1378Y2.4882
X1.1378Y1.7756
X1.1378Y1.0709
X1.1378Y1.0315
X1.1378Y0.3593
X1.1378Y0.3189
X1.1654Y3.815
X1.1693Y0.252
X1.1693Y0.1732
X1.189Y3.874
X1.2087Y3.8898
X1.2244Y0.5197
X1.2249Y2.6457
X1.2249Y1.9375
X1.2249Y1.2323
X1.2411Y3.8022
X1.2717Y2.6102
X1.2717Y1.9016
X1.2717Y1.1969
X1.2717Y0.4843
X1.315Y2.1811
X1.3307Y1.7598
X1.376Y1.1457
X1.4016Y3.1693
X1.4134Y1.9213
X1.4134Y1.6339
X1.4213Y3.7441
X1.4331Y0.626
X1.4331Y0.311
X1.4567Y3.3937
X1.4567Y3.3228
X1.4606Y3.8898
X1.4695Y0.0817
X1.4774Y0.4892
X1.5039Y0.2205
X1.5118Y0.7126
X1.5315Y1.4646
X1.5315Y1.3543
X1.5404Y0.6929
X1.5512Y1.5787
X1.5551Y3.3031
X1.5551Y1.5283
X1.5669Y0.811
X1.5709Y2.0866
X1.5787Y0.7795
X1.5827Y2.0118
X1.5866Y1.9449
X1.5945Y1.4803
X1.5945Y1.3543
X1.5945Y1.2283
X1.5945Y1.1024
X1.5945Y0.9764
X1.6063Y2.189
X1.6083Y1.8583
X1.6083Y1.7009
X1.6142Y1.6496
X1.6181Y1.9252
X1.6211Y0.7864
X1.622Y0.8661
X1.6403Y3.6392
X1.6414Y1.9169
X1.6417Y1.6772
X1.6488Y2.189
X1.6489Y2.1625
X1.6644Y0.6919
X1.6654Y1.9173
X1.6693Y1.6064
X1.6697Y0.7476
X1.685Y1.9371
X1.685Y0.8031
X1.6929Y3.6378
X1.6969Y0.8622
X1.7008Y0.9016
X1.7028Y2.2323
X1.7067Y3.0827
X1.7126Y2.4843
X1.7126Y2.374
X1.7205Y2.4291
X1.7205Y2.195
X1.7299Y0.748
X1.7441Y1.4173
X1.748Y1.6181
X1.752Y2.8622
X1.752Y0.6929
X1.7677Y1.3268
X1.7677Y0.8307
X1.7677Y0.7992
X1.7795Y3.6378
X1.7835Y1.5354
X1.7835Y1.5079
X1.7911Y1.9331
X1.7953Y1.3622
X1.8008Y2.0667
X1.8031Y2.1811
X1.811Y2.8622
X1.811Y1.5394
X1.815Y1.9331
X1.8346Y1.3622
X1.8386Y0.8701
X1.8425Y2.1811
X1.8425Y1.6102
X1.8504Y1.5394
X1.8569Y3.0827
X1.8583Y1.4646
X1.8622Y1.2913
X1.8819Y2.4567
X1.8819Y2.2913
X1.8819Y2.0512
X1.8819Y1.9213
X1.8866Y1.4637
X1.9016Y0.8071
X1.9047Y1.7882
X1.9054Y1.815
X1.9055Y1.9371
X1.9069Y3.0807
X1.9154Y1.4744
X1.9291Y1.7126
X1.9291Y0.7441
X1.9294Y1.9997
X1.9301Y1.7567
X1.9311Y1.9253
X1.9311Y1.9014
X1.9311Y1.8327
X1.9567Y3.0827
X1.9567Y1.2913
X1.9646Y2.9173
X1.9646Y2.0197
X1.9646Y1.6063
X1.9685Y2.5669
X1.9764Y0.6575
X1.985Y1.9559
X1.9852Y1.482
X1.9882Y2.9646
X1.9961Y2.1102
X2.0039Y1.7087
X2.0069Y3.0817
X2.0079Y1.878
X2.0236Y1.5866
X2.0236Y1.5039
X2.0315Y1.9055
X2.0463Y1.4803
X2.0569Y3.0827
X2.0591Y2.1378
X2.0591Y1.2913
X2.063Y2.8898
X2.0709Y2.9646
X2.0709Y1.7913
X2.0709Y1.752
X2.0748Y1.6063
X2.0748Y1.5245
X2.0748Y0.064
X2.0787Y2.1811
X2.0787Y0.5472
X2.0827Y0.6535
X2.0906Y3.8898
X2.126Y2.9252
X2.1417Y3.063
X2.1457Y3.1181
X2.1457Y2.9252
X2.1614Y1.6969
X2.1654Y2.9252
X2.1693Y3.063
X2.1693Y0.6535
X2.1732Y1.8504
X2.1732Y1.811
X2.1732Y1.7717
X2.1732Y1.4173
X2.1772Y1.7205
X2.1772Y1.4567
X2.1772Y1.3386
X2.1772Y1.3071
X2.185Y2.9252
X2.185Y0.5472
X2.1895Y1.7411
X2.1929Y1.2085
X2.1969Y3.253
X2.2205Y3.0118
X2.2244Y1.9055
X2.2244Y1.8858
X2.2402Y3.1535
X2.2441Y3.4734
X2.2441Y3.2451
X2.2559Y1.4961
X2.2677Y3.8228
X2.2858Y1.4961
X2.3051Y1.811
X2.315Y3.0118
X2.3189Y3.1024
X2.3189Y1.3425
X2.3307Y2.9724
X2.3307Y2.9524
X2.3578Y3.6063
X2.378Y3.4134
X2.378Y3.3858
X2.4449Y3.2992
X2.4567Y3.1654
X2.4685Y3.2992
X2.5236Y3.2992
X2.5354Y3.1654
X2.5472Y3.2992
X2.6024Y3.2992
X2.6102Y0.2992
X2.6142Y3.1654
X2.6142Y2.4252
X2.6142Y1.7165
X2.6181Y1.0079
X2.626Y3.2992
X2.6299Y1.2087
X2.6496Y1.7402
X2.878Y1.3386
X2.8787Y1.4181
X2.8787Y1.3772
X2.8858Y1.8898
X2.8858Y1.8504
X2.8858Y1.7724
X2.9252Y1.7362
X2.9409Y1.9134
X2.9528Y1.2598
X2.9606Y1.9685
X3.0039Y1.6732
X3.0049Y1.6112
X3.0276Y1.3425
X3.3228Y2.4252
X3.3228Y1.0079
X3.3228Y0.2992
X3.3268Y1.7165
T5
X1.9055Y1.1929
X1.9803Y2.5386
X1.9803Y2.4386
X1.9803Y2.3386
X2.0055Y1.1929
X2.1055Y1.1929
T6
X0.2756Y2.6772
X0.2756Y1.9685
X0.2756Y1.2598
X0.2756Y0.5512
X2.5591Y2.6772
X2.5591Y1.9685
X2.5591Y1.2598
X2.5591Y0.5512
X3.2677Y2.6772
X3.2677Y1.9685
X3.2677Y1.2598
X3.2677Y0.5512
T7
X0.1516Y2.8012
X0.1516Y2.5531
X0.1516Y2.0925
X0.1516Y1.8445
X0.1516Y1.3839
X0.1516Y1.1358
X0.1516Y0.6752
X0.1516Y0.4272
X0.3996Y2.8012
X0.3996Y2.5531
X0.3996Y2.0925
X0.3996Y1.8445
X0.3996Y1.3839
X0.3996Y1.1358
X0.3996Y0.6752
X0.3996Y0.4272
X2.435Y2.8012
X2.435Y2.5531
X2.435Y2.0925
X2.435Y1.8445
X2.435Y1.3839
X2.435Y1.1358
X2.435Y0.6752
X2.435Y0.4272
X2.6831Y2.8012
X2.6831Y2.5531
X2.6831Y2.0925
X2.6831Y1.8445
X2.6831Y1.3839
X2.6831Y1.1358
X2.6831Y0.6752
X2.6831Y0.4272
X3.1437Y2.8012
X3.1437Y2.5531
X3.1437Y2.0925
X3.1437Y1.8445
X3.1437Y1.3839
X3.1437Y1.1358
X3.1437Y0.6752
X3.1437Y0.4272
X3.3917Y2.8012
X3.3917Y2.5531
X3.3917Y2.0925
X3.3917Y1.8445
X3.3917Y1.3839
X3.3917Y1.1358
X3.3917Y0.6752
X3.3917Y0.4272
T8
X3.1063Y3.6299
X3.1063Y3.3937
X3.2913Y3.5118
T9
X2.5433Y3.7362
X2.5433Y3.5394
X2.8386Y3.7362
X2.8386Y3.5394
T10
X1.8898Y3.7224
T11
X1.3386Y3.7913
X1.3386Y3.5157
T12
X0.1181Y3.8189
X0.1181Y0.1181
X3.4252Y3.8189
X3.4252Y0.1181
T4
G00X1.6016Y3.8189
M15
G01X1.6016Y3.8701
M16
G05
G00X1.6016Y3.6742
M15
G01X1.6016Y3.7136
M16
G05
G00X1.9417Y3.8189
M15
G01X1.9417Y3.8701
M16
G05
G00X1.9417Y3.6742
M15
G01X1.9417Y3.7136
M16
G05
T10
G00X1.6585Y3.7224
M15
G01X1.6486Y3.7224
M16
G05
M30
