G04 #@! TF.GenerationSoftware,KiCad,Pcbnew,9.0.6*
G04 #@! TF.CreationDate,2025-12-22T21:50:11-08:00*
G04 #@! TF.ProjectId,harp.device.quad.dac,68617270-2e64-4657-9669-63652e717561,1.1*
G04 #@! TF.SameCoordinates,PX5b6e7e8PY7bfa480*
G04 #@! TF.FileFunction,Legend,Bot*
G04 #@! TF.FilePolarity,Positive*
%FSLAX46Y46*%
G04 Gerber Fmt 4.6, Leading zero omitted, Abs format (unit mm)*
G04 Created by KiCad (PCBNEW 9.0.6) date 2025-12-22 21:50:11*
%MOMM*%
%LPD*%
G01*
G04 APERTURE LIST*
%ADD10C,0.200000*%
%ADD11C,0.250000*%
%ADD12C,0.300000*%
%ADD13C,0.150000*%
%ADD14C,0.120000*%
%ADD15C,0.000000*%
G04 APERTURE END LIST*
D10*
X39000000Y22500000D02*
X44000000Y22500000D01*
X44000000Y20500000D01*
X39000000Y20500000D01*
X39000000Y19000000D01*
X37000000Y21500000D01*
X39000000Y24000000D01*
X39000000Y22500000D01*
G36*
X39000000Y22500000D02*
G01*
X44000000Y22500000D01*
X44000000Y20500000D01*
X39000000Y20500000D01*
X39000000Y19000000D01*
X37000000Y21500000D01*
X39000000Y24000000D01*
X39000000Y22500000D01*
G37*
D11*
X59164473Y25012748D02*
X59307330Y24941320D01*
X59307330Y24941320D02*
X59593044Y24941320D01*
X59593044Y24941320D02*
X59735901Y25012748D01*
X59735901Y25012748D02*
X59807330Y25084177D01*
X59807330Y25084177D02*
X59878758Y25227034D01*
X59878758Y25227034D02*
X59878758Y25655606D01*
X59878758Y25655606D02*
X59807330Y25798463D01*
X59807330Y25798463D02*
X59735901Y25869891D01*
X59735901Y25869891D02*
X59593044Y25941320D01*
X59593044Y25941320D02*
X59307330Y25941320D01*
X59307330Y25941320D02*
X59164473Y25869891D01*
X58521616Y24941320D02*
X58521616Y26441320D01*
X57878759Y24941320D02*
X57878759Y25727034D01*
X57878759Y25727034D02*
X57950187Y25869891D01*
X57950187Y25869891D02*
X58093044Y25941320D01*
X58093044Y25941320D02*
X58307330Y25941320D01*
X58307330Y25941320D02*
X58450187Y25869891D01*
X58450187Y25869891D02*
X58521616Y25798463D01*
X56521616Y24941320D02*
X56521616Y25727034D01*
X56521616Y25727034D02*
X56593044Y25869891D01*
X56593044Y25869891D02*
X56735901Y25941320D01*
X56735901Y25941320D02*
X57021616Y25941320D01*
X57021616Y25941320D02*
X57164473Y25869891D01*
X56521616Y25012748D02*
X56664473Y24941320D01*
X56664473Y24941320D02*
X57021616Y24941320D01*
X57021616Y24941320D02*
X57164473Y25012748D01*
X57164473Y25012748D02*
X57235901Y25155606D01*
X57235901Y25155606D02*
X57235901Y25298463D01*
X57235901Y25298463D02*
X57164473Y25441320D01*
X57164473Y25441320D02*
X57021616Y25512748D01*
X57021616Y25512748D02*
X56664473Y25512748D01*
X56664473Y25512748D02*
X56521616Y25584177D01*
X55807330Y25941320D02*
X55807330Y24941320D01*
X55807330Y25798463D02*
X55735901Y25869891D01*
X55735901Y25869891D02*
X55593044Y25941320D01*
X55593044Y25941320D02*
X55378758Y25941320D01*
X55378758Y25941320D02*
X55235901Y25869891D01*
X55235901Y25869891D02*
X55164473Y25727034D01*
X55164473Y25727034D02*
X55164473Y24941320D01*
X54450187Y25941320D02*
X54450187Y24941320D01*
X54450187Y25798463D02*
X54378758Y25869891D01*
X54378758Y25869891D02*
X54235901Y25941320D01*
X54235901Y25941320D02*
X54021615Y25941320D01*
X54021615Y25941320D02*
X53878758Y25869891D01*
X53878758Y25869891D02*
X53807330Y25727034D01*
X53807330Y25727034D02*
X53807330Y24941320D01*
X52521615Y25012748D02*
X52664472Y24941320D01*
X52664472Y24941320D02*
X52950187Y24941320D01*
X52950187Y24941320D02*
X53093044Y25012748D01*
X53093044Y25012748D02*
X53164472Y25155606D01*
X53164472Y25155606D02*
X53164472Y25727034D01*
X53164472Y25727034D02*
X53093044Y25869891D01*
X53093044Y25869891D02*
X52950187Y25941320D01*
X52950187Y25941320D02*
X52664472Y25941320D01*
X52664472Y25941320D02*
X52521615Y25869891D01*
X52521615Y25869891D02*
X52450187Y25727034D01*
X52450187Y25727034D02*
X52450187Y25584177D01*
X52450187Y25584177D02*
X53164472Y25441320D01*
X51593044Y24941320D02*
X51735901Y25012748D01*
X51735901Y25012748D02*
X51807330Y25155606D01*
X51807330Y25155606D02*
X51807330Y26441320D01*
X51378759Y24798463D02*
X50235901Y24798463D01*
X49593044Y26441320D02*
X49450187Y26441320D01*
X49450187Y26441320D02*
X49307330Y26369891D01*
X49307330Y26369891D02*
X49235902Y26298463D01*
X49235902Y26298463D02*
X49164473Y26155606D01*
X49164473Y26155606D02*
X49093044Y25869891D01*
X49093044Y25869891D02*
X49093044Y25512748D01*
X49093044Y25512748D02*
X49164473Y25227034D01*
X49164473Y25227034D02*
X49235902Y25084177D01*
X49235902Y25084177D02*
X49307330Y25012748D01*
X49307330Y25012748D02*
X49450187Y24941320D01*
X49450187Y24941320D02*
X49593044Y24941320D01*
X49593044Y24941320D02*
X49735902Y25012748D01*
X49735902Y25012748D02*
X49807330Y25084177D01*
X49807330Y25084177D02*
X49878759Y25227034D01*
X49878759Y25227034D02*
X49950187Y25512748D01*
X49950187Y25512748D02*
X49950187Y25869891D01*
X49950187Y25869891D02*
X49878759Y26155606D01*
X49878759Y26155606D02*
X49807330Y26298463D01*
X49807330Y26298463D02*
X49735902Y26369891D01*
X49735902Y26369891D02*
X49593044Y26441320D01*
X48450188Y25084177D02*
X48378759Y25012748D01*
X48378759Y25012748D02*
X48450188Y24941320D01*
X48450188Y24941320D02*
X48521616Y25012748D01*
X48521616Y25012748D02*
X48450188Y25084177D01*
X48450188Y25084177D02*
X48450188Y24941320D01*
X47735902Y24941320D02*
X47735902Y26441320D01*
X47735902Y25869891D02*
X47593045Y25941320D01*
X47593045Y25941320D02*
X47307330Y25941320D01*
X47307330Y25941320D02*
X47164473Y25869891D01*
X47164473Y25869891D02*
X47093045Y25798463D01*
X47093045Y25798463D02*
X47021616Y25655606D01*
X47021616Y25655606D02*
X47021616Y25227034D01*
X47021616Y25227034D02*
X47093045Y25084177D01*
X47093045Y25084177D02*
X47164473Y25012748D01*
X47164473Y25012748D02*
X47307330Y24941320D01*
X47307330Y24941320D02*
X47593045Y24941320D01*
X47593045Y24941320D02*
X47735902Y25012748D01*
X46378759Y24941320D02*
X46378759Y25941320D01*
X46378759Y26441320D02*
X46450187Y26369891D01*
X46450187Y26369891D02*
X46378759Y26298463D01*
X46378759Y26298463D02*
X46307330Y26369891D01*
X46307330Y26369891D02*
X46378759Y26441320D01*
X46378759Y26441320D02*
X46378759Y26298463D01*
X45664473Y25941320D02*
X45664473Y24941320D01*
X45664473Y25798463D02*
X45593044Y25869891D01*
X45593044Y25869891D02*
X45450187Y25941320D01*
X45450187Y25941320D02*
X45235901Y25941320D01*
X45235901Y25941320D02*
X45093044Y25869891D01*
X45093044Y25869891D02*
X45021616Y25727034D01*
X45021616Y25727034D02*
X45021616Y24941320D01*
X59164473Y22597832D02*
X59307330Y22526404D01*
X59307330Y22526404D02*
X59593044Y22526404D01*
X59593044Y22526404D02*
X59735901Y22597832D01*
X59735901Y22597832D02*
X59807330Y22669261D01*
X59807330Y22669261D02*
X59878758Y22812118D01*
X59878758Y22812118D02*
X59878758Y23240690D01*
X59878758Y23240690D02*
X59807330Y23383547D01*
X59807330Y23383547D02*
X59735901Y23454975D01*
X59735901Y23454975D02*
X59593044Y23526404D01*
X59593044Y23526404D02*
X59307330Y23526404D01*
X59307330Y23526404D02*
X59164473Y23454975D01*
X58521616Y22526404D02*
X58521616Y24026404D01*
X57878759Y22526404D02*
X57878759Y23312118D01*
X57878759Y23312118D02*
X57950187Y23454975D01*
X57950187Y23454975D02*
X58093044Y23526404D01*
X58093044Y23526404D02*
X58307330Y23526404D01*
X58307330Y23526404D02*
X58450187Y23454975D01*
X58450187Y23454975D02*
X58521616Y23383547D01*
X56521616Y22526404D02*
X56521616Y23312118D01*
X56521616Y23312118D02*
X56593044Y23454975D01*
X56593044Y23454975D02*
X56735901Y23526404D01*
X56735901Y23526404D02*
X57021616Y23526404D01*
X57021616Y23526404D02*
X57164473Y23454975D01*
X56521616Y22597832D02*
X56664473Y22526404D01*
X56664473Y22526404D02*
X57021616Y22526404D01*
X57021616Y22526404D02*
X57164473Y22597832D01*
X57164473Y22597832D02*
X57235901Y22740690D01*
X57235901Y22740690D02*
X57235901Y22883547D01*
X57235901Y22883547D02*
X57164473Y23026404D01*
X57164473Y23026404D02*
X57021616Y23097832D01*
X57021616Y23097832D02*
X56664473Y23097832D01*
X56664473Y23097832D02*
X56521616Y23169261D01*
X55807330Y23526404D02*
X55807330Y22526404D01*
X55807330Y23383547D02*
X55735901Y23454975D01*
X55735901Y23454975D02*
X55593044Y23526404D01*
X55593044Y23526404D02*
X55378758Y23526404D01*
X55378758Y23526404D02*
X55235901Y23454975D01*
X55235901Y23454975D02*
X55164473Y23312118D01*
X55164473Y23312118D02*
X55164473Y22526404D01*
X54450187Y23526404D02*
X54450187Y22526404D01*
X54450187Y23383547D02*
X54378758Y23454975D01*
X54378758Y23454975D02*
X54235901Y23526404D01*
X54235901Y23526404D02*
X54021615Y23526404D01*
X54021615Y23526404D02*
X53878758Y23454975D01*
X53878758Y23454975D02*
X53807330Y23312118D01*
X53807330Y23312118D02*
X53807330Y22526404D01*
X52521615Y22597832D02*
X52664472Y22526404D01*
X52664472Y22526404D02*
X52950187Y22526404D01*
X52950187Y22526404D02*
X53093044Y22597832D01*
X53093044Y22597832D02*
X53164472Y22740690D01*
X53164472Y22740690D02*
X53164472Y23312118D01*
X53164472Y23312118D02*
X53093044Y23454975D01*
X53093044Y23454975D02*
X52950187Y23526404D01*
X52950187Y23526404D02*
X52664472Y23526404D01*
X52664472Y23526404D02*
X52521615Y23454975D01*
X52521615Y23454975D02*
X52450187Y23312118D01*
X52450187Y23312118D02*
X52450187Y23169261D01*
X52450187Y23169261D02*
X53164472Y23026404D01*
X51593044Y22526404D02*
X51735901Y22597832D01*
X51735901Y22597832D02*
X51807330Y22740690D01*
X51807330Y22740690D02*
X51807330Y24026404D01*
X51378759Y22383547D02*
X50235901Y22383547D01*
X49093044Y22526404D02*
X49950187Y22526404D01*
X49521616Y22526404D02*
X49521616Y24026404D01*
X49521616Y24026404D02*
X49664473Y23812118D01*
X49664473Y23812118D02*
X49807330Y23669261D01*
X49807330Y23669261D02*
X49950187Y23597832D01*
X48450188Y22669261D02*
X48378759Y22597832D01*
X48378759Y22597832D02*
X48450188Y22526404D01*
X48450188Y22526404D02*
X48521616Y22597832D01*
X48521616Y22597832D02*
X48450188Y22669261D01*
X48450188Y22669261D02*
X48450188Y22526404D01*
X47735902Y22526404D02*
X47735902Y24026404D01*
X47735902Y23454975D02*
X47593045Y23526404D01*
X47593045Y23526404D02*
X47307330Y23526404D01*
X47307330Y23526404D02*
X47164473Y23454975D01*
X47164473Y23454975D02*
X47093045Y23383547D01*
X47093045Y23383547D02*
X47021616Y23240690D01*
X47021616Y23240690D02*
X47021616Y22812118D01*
X47021616Y22812118D02*
X47093045Y22669261D01*
X47093045Y22669261D02*
X47164473Y22597832D01*
X47164473Y22597832D02*
X47307330Y22526404D01*
X47307330Y22526404D02*
X47593045Y22526404D01*
X47593045Y22526404D02*
X47735902Y22597832D01*
X46378759Y22526404D02*
X46378759Y23526404D01*
X46378759Y24026404D02*
X46450187Y23954975D01*
X46450187Y23954975D02*
X46378759Y23883547D01*
X46378759Y23883547D02*
X46307330Y23954975D01*
X46307330Y23954975D02*
X46378759Y24026404D01*
X46378759Y24026404D02*
X46378759Y23883547D01*
X45664473Y23526404D02*
X45664473Y22526404D01*
X45664473Y23383547D02*
X45593044Y23454975D01*
X45593044Y23454975D02*
X45450187Y23526404D01*
X45450187Y23526404D02*
X45235901Y23526404D01*
X45235901Y23526404D02*
X45093044Y23454975D01*
X45093044Y23454975D02*
X45021616Y23312118D01*
X45021616Y23312118D02*
X45021616Y22526404D01*
X59164473Y20182916D02*
X59307330Y20111488D01*
X59307330Y20111488D02*
X59593044Y20111488D01*
X59593044Y20111488D02*
X59735901Y20182916D01*
X59735901Y20182916D02*
X59807330Y20254345D01*
X59807330Y20254345D02*
X59878758Y20397202D01*
X59878758Y20397202D02*
X59878758Y20825774D01*
X59878758Y20825774D02*
X59807330Y20968631D01*
X59807330Y20968631D02*
X59735901Y21040059D01*
X59735901Y21040059D02*
X59593044Y21111488D01*
X59593044Y21111488D02*
X59307330Y21111488D01*
X59307330Y21111488D02*
X59164473Y21040059D01*
X58521616Y20111488D02*
X58521616Y21611488D01*
X57878759Y20111488D02*
X57878759Y20897202D01*
X57878759Y20897202D02*
X57950187Y21040059D01*
X57950187Y21040059D02*
X58093044Y21111488D01*
X58093044Y21111488D02*
X58307330Y21111488D01*
X58307330Y21111488D02*
X58450187Y21040059D01*
X58450187Y21040059D02*
X58521616Y20968631D01*
X56521616Y20111488D02*
X56521616Y20897202D01*
X56521616Y20897202D02*
X56593044Y21040059D01*
X56593044Y21040059D02*
X56735901Y21111488D01*
X56735901Y21111488D02*
X57021616Y21111488D01*
X57021616Y21111488D02*
X57164473Y21040059D01*
X56521616Y20182916D02*
X56664473Y20111488D01*
X56664473Y20111488D02*
X57021616Y20111488D01*
X57021616Y20111488D02*
X57164473Y20182916D01*
X57164473Y20182916D02*
X57235901Y20325774D01*
X57235901Y20325774D02*
X57235901Y20468631D01*
X57235901Y20468631D02*
X57164473Y20611488D01*
X57164473Y20611488D02*
X57021616Y20682916D01*
X57021616Y20682916D02*
X56664473Y20682916D01*
X56664473Y20682916D02*
X56521616Y20754345D01*
X55807330Y21111488D02*
X55807330Y20111488D01*
X55807330Y20968631D02*
X55735901Y21040059D01*
X55735901Y21040059D02*
X55593044Y21111488D01*
X55593044Y21111488D02*
X55378758Y21111488D01*
X55378758Y21111488D02*
X55235901Y21040059D01*
X55235901Y21040059D02*
X55164473Y20897202D01*
X55164473Y20897202D02*
X55164473Y20111488D01*
X54450187Y21111488D02*
X54450187Y20111488D01*
X54450187Y20968631D02*
X54378758Y21040059D01*
X54378758Y21040059D02*
X54235901Y21111488D01*
X54235901Y21111488D02*
X54021615Y21111488D01*
X54021615Y21111488D02*
X53878758Y21040059D01*
X53878758Y21040059D02*
X53807330Y20897202D01*
X53807330Y20897202D02*
X53807330Y20111488D01*
X52521615Y20182916D02*
X52664472Y20111488D01*
X52664472Y20111488D02*
X52950187Y20111488D01*
X52950187Y20111488D02*
X53093044Y20182916D01*
X53093044Y20182916D02*
X53164472Y20325774D01*
X53164472Y20325774D02*
X53164472Y20897202D01*
X53164472Y20897202D02*
X53093044Y21040059D01*
X53093044Y21040059D02*
X52950187Y21111488D01*
X52950187Y21111488D02*
X52664472Y21111488D01*
X52664472Y21111488D02*
X52521615Y21040059D01*
X52521615Y21040059D02*
X52450187Y20897202D01*
X52450187Y20897202D02*
X52450187Y20754345D01*
X52450187Y20754345D02*
X53164472Y20611488D01*
X51593044Y20111488D02*
X51735901Y20182916D01*
X51735901Y20182916D02*
X51807330Y20325774D01*
X51807330Y20325774D02*
X51807330Y21611488D01*
X51378759Y19968631D02*
X50235901Y19968631D01*
X49950187Y21468631D02*
X49878759Y21540059D01*
X49878759Y21540059D02*
X49735902Y21611488D01*
X49735902Y21611488D02*
X49378759Y21611488D01*
X49378759Y21611488D02*
X49235902Y21540059D01*
X49235902Y21540059D02*
X49164473Y21468631D01*
X49164473Y21468631D02*
X49093044Y21325774D01*
X49093044Y21325774D02*
X49093044Y21182916D01*
X49093044Y21182916D02*
X49164473Y20968631D01*
X49164473Y20968631D02*
X50021616Y20111488D01*
X50021616Y20111488D02*
X49093044Y20111488D01*
X48450188Y20254345D02*
X48378759Y20182916D01*
X48378759Y20182916D02*
X48450188Y20111488D01*
X48450188Y20111488D02*
X48521616Y20182916D01*
X48521616Y20182916D02*
X48450188Y20254345D01*
X48450188Y20254345D02*
X48450188Y20111488D01*
X47735902Y20111488D02*
X47735902Y21611488D01*
X47735902Y21040059D02*
X47593045Y21111488D01*
X47593045Y21111488D02*
X47307330Y21111488D01*
X47307330Y21111488D02*
X47164473Y21040059D01*
X47164473Y21040059D02*
X47093045Y20968631D01*
X47093045Y20968631D02*
X47021616Y20825774D01*
X47021616Y20825774D02*
X47021616Y20397202D01*
X47021616Y20397202D02*
X47093045Y20254345D01*
X47093045Y20254345D02*
X47164473Y20182916D01*
X47164473Y20182916D02*
X47307330Y20111488D01*
X47307330Y20111488D02*
X47593045Y20111488D01*
X47593045Y20111488D02*
X47735902Y20182916D01*
X46378759Y20111488D02*
X46378759Y21111488D01*
X46378759Y21611488D02*
X46450187Y21540059D01*
X46450187Y21540059D02*
X46378759Y21468631D01*
X46378759Y21468631D02*
X46307330Y21540059D01*
X46307330Y21540059D02*
X46378759Y21611488D01*
X46378759Y21611488D02*
X46378759Y21468631D01*
X45664473Y21111488D02*
X45664473Y20111488D01*
X45664473Y20968631D02*
X45593044Y21040059D01*
X45593044Y21040059D02*
X45450187Y21111488D01*
X45450187Y21111488D02*
X45235901Y21111488D01*
X45235901Y21111488D02*
X45093044Y21040059D01*
X45093044Y21040059D02*
X45021616Y20897202D01*
X45021616Y20897202D02*
X45021616Y20111488D01*
X59164473Y17768000D02*
X59307330Y17696572D01*
X59307330Y17696572D02*
X59593044Y17696572D01*
X59593044Y17696572D02*
X59735901Y17768000D01*
X59735901Y17768000D02*
X59807330Y17839429D01*
X59807330Y17839429D02*
X59878758Y17982286D01*
X59878758Y17982286D02*
X59878758Y18410858D01*
X59878758Y18410858D02*
X59807330Y18553715D01*
X59807330Y18553715D02*
X59735901Y18625143D01*
X59735901Y18625143D02*
X59593044Y18696572D01*
X59593044Y18696572D02*
X59307330Y18696572D01*
X59307330Y18696572D02*
X59164473Y18625143D01*
X58521616Y17696572D02*
X58521616Y19196572D01*
X57878759Y17696572D02*
X57878759Y18482286D01*
X57878759Y18482286D02*
X57950187Y18625143D01*
X57950187Y18625143D02*
X58093044Y18696572D01*
X58093044Y18696572D02*
X58307330Y18696572D01*
X58307330Y18696572D02*
X58450187Y18625143D01*
X58450187Y18625143D02*
X58521616Y18553715D01*
X56521616Y17696572D02*
X56521616Y18482286D01*
X56521616Y18482286D02*
X56593044Y18625143D01*
X56593044Y18625143D02*
X56735901Y18696572D01*
X56735901Y18696572D02*
X57021616Y18696572D01*
X57021616Y18696572D02*
X57164473Y18625143D01*
X56521616Y17768000D02*
X56664473Y17696572D01*
X56664473Y17696572D02*
X57021616Y17696572D01*
X57021616Y17696572D02*
X57164473Y17768000D01*
X57164473Y17768000D02*
X57235901Y17910858D01*
X57235901Y17910858D02*
X57235901Y18053715D01*
X57235901Y18053715D02*
X57164473Y18196572D01*
X57164473Y18196572D02*
X57021616Y18268000D01*
X57021616Y18268000D02*
X56664473Y18268000D01*
X56664473Y18268000D02*
X56521616Y18339429D01*
X55807330Y18696572D02*
X55807330Y17696572D01*
X55807330Y18553715D02*
X55735901Y18625143D01*
X55735901Y18625143D02*
X55593044Y18696572D01*
X55593044Y18696572D02*
X55378758Y18696572D01*
X55378758Y18696572D02*
X55235901Y18625143D01*
X55235901Y18625143D02*
X55164473Y18482286D01*
X55164473Y18482286D02*
X55164473Y17696572D01*
X54450187Y18696572D02*
X54450187Y17696572D01*
X54450187Y18553715D02*
X54378758Y18625143D01*
X54378758Y18625143D02*
X54235901Y18696572D01*
X54235901Y18696572D02*
X54021615Y18696572D01*
X54021615Y18696572D02*
X53878758Y18625143D01*
X53878758Y18625143D02*
X53807330Y18482286D01*
X53807330Y18482286D02*
X53807330Y17696572D01*
X52521615Y17768000D02*
X52664472Y17696572D01*
X52664472Y17696572D02*
X52950187Y17696572D01*
X52950187Y17696572D02*
X53093044Y17768000D01*
X53093044Y17768000D02*
X53164472Y17910858D01*
X53164472Y17910858D02*
X53164472Y18482286D01*
X53164472Y18482286D02*
X53093044Y18625143D01*
X53093044Y18625143D02*
X52950187Y18696572D01*
X52950187Y18696572D02*
X52664472Y18696572D01*
X52664472Y18696572D02*
X52521615Y18625143D01*
X52521615Y18625143D02*
X52450187Y18482286D01*
X52450187Y18482286D02*
X52450187Y18339429D01*
X52450187Y18339429D02*
X53164472Y18196572D01*
X51593044Y17696572D02*
X51735901Y17768000D01*
X51735901Y17768000D02*
X51807330Y17910858D01*
X51807330Y17910858D02*
X51807330Y19196572D01*
X51378759Y17553715D02*
X50235901Y17553715D01*
X50021616Y19196572D02*
X49093044Y19196572D01*
X49093044Y19196572D02*
X49593044Y18625143D01*
X49593044Y18625143D02*
X49378759Y18625143D01*
X49378759Y18625143D02*
X49235902Y18553715D01*
X49235902Y18553715D02*
X49164473Y18482286D01*
X49164473Y18482286D02*
X49093044Y18339429D01*
X49093044Y18339429D02*
X49093044Y17982286D01*
X49093044Y17982286D02*
X49164473Y17839429D01*
X49164473Y17839429D02*
X49235902Y17768000D01*
X49235902Y17768000D02*
X49378759Y17696572D01*
X49378759Y17696572D02*
X49807330Y17696572D01*
X49807330Y17696572D02*
X49950187Y17768000D01*
X49950187Y17768000D02*
X50021616Y17839429D01*
X48450188Y17839429D02*
X48378759Y17768000D01*
X48378759Y17768000D02*
X48450188Y17696572D01*
X48450188Y17696572D02*
X48521616Y17768000D01*
X48521616Y17768000D02*
X48450188Y17839429D01*
X48450188Y17839429D02*
X48450188Y17696572D01*
X47735902Y17696572D02*
X47735902Y19196572D01*
X47735902Y18625143D02*
X47593045Y18696572D01*
X47593045Y18696572D02*
X47307330Y18696572D01*
X47307330Y18696572D02*
X47164473Y18625143D01*
X47164473Y18625143D02*
X47093045Y18553715D01*
X47093045Y18553715D02*
X47021616Y18410858D01*
X47021616Y18410858D02*
X47021616Y17982286D01*
X47021616Y17982286D02*
X47093045Y17839429D01*
X47093045Y17839429D02*
X47164473Y17768000D01*
X47164473Y17768000D02*
X47307330Y17696572D01*
X47307330Y17696572D02*
X47593045Y17696572D01*
X47593045Y17696572D02*
X47735902Y17768000D01*
X46378759Y17696572D02*
X46378759Y18696572D01*
X46378759Y19196572D02*
X46450187Y19125143D01*
X46450187Y19125143D02*
X46378759Y19053715D01*
X46378759Y19053715D02*
X46307330Y19125143D01*
X46307330Y19125143D02*
X46378759Y19196572D01*
X46378759Y19196572D02*
X46378759Y19053715D01*
X45664473Y18696572D02*
X45664473Y17696572D01*
X45664473Y18553715D02*
X45593044Y18625143D01*
X45593044Y18625143D02*
X45450187Y18696572D01*
X45450187Y18696572D02*
X45235901Y18696572D01*
X45235901Y18696572D02*
X45093044Y18625143D01*
X45093044Y18625143D02*
X45021616Y18482286D01*
X45021616Y18482286D02*
X45021616Y17696572D01*
D12*
G36*
X32562229Y15553818D02*
G01*
X32562229Y17671892D01*
X32069103Y17671892D01*
X32069103Y16781504D01*
X32060236Y16677724D01*
X32036573Y16601249D01*
X32000837Y16545566D01*
X31950175Y16504223D01*
X31882715Y16477913D01*
X31793108Y16468263D01*
X31702588Y16477948D01*
X31634777Y16504289D01*
X31584159Y16545566D01*
X31548353Y16601259D01*
X31524651Y16677735D01*
X31515771Y16781504D01*
X31515771Y17671892D01*
X31023866Y17671892D01*
X31023866Y16647415D01*
X31017021Y16558141D01*
X31001395Y16511982D01*
X30972083Y16483798D01*
X30925558Y16473758D01*
X30878419Y16480597D01*
X30829937Y16503800D01*
X30829937Y16162349D01*
X30965858Y16115943D01*
X31090910Y16100922D01*
X31204793Y16114623D01*
X31289602Y16152091D01*
X31335758Y16191020D01*
X31377481Y16244866D01*
X31414654Y16316710D01*
X31487461Y16220716D01*
X31571092Y16154899D01*
X31668925Y16114856D01*
X31784926Y16100922D01*
X31881390Y16109495D01*
X31957117Y16133040D01*
X32020633Y16173468D01*
X32069103Y16230615D01*
X32069103Y15553818D01*
X32562229Y15553818D01*
G37*
D13*
X34433333Y99245181D02*
X34433333Y98530896D01*
X34433333Y98530896D02*
X34480952Y98388039D01*
X34480952Y98388039D02*
X34576190Y98292800D01*
X34576190Y98292800D02*
X34719047Y98245181D01*
X34719047Y98245181D02*
X34814285Y98245181D01*
X34052380Y99245181D02*
X33433333Y99245181D01*
X33433333Y99245181D02*
X33766666Y98864229D01*
X33766666Y98864229D02*
X33623809Y98864229D01*
X33623809Y98864229D02*
X33528571Y98816610D01*
X33528571Y98816610D02*
X33480952Y98768991D01*
X33480952Y98768991D02*
X33433333Y98673753D01*
X33433333Y98673753D02*
X33433333Y98435658D01*
X33433333Y98435658D02*
X33480952Y98340420D01*
X33480952Y98340420D02*
X33528571Y98292800D01*
X33528571Y98292800D02*
X33623809Y98245181D01*
X33623809Y98245181D02*
X33909523Y98245181D01*
X33909523Y98245181D02*
X34004761Y98292800D01*
X34004761Y98292800D02*
X34052380Y98340420D01*
X67588095Y92854820D02*
X67588095Y91854820D01*
X67588095Y92331010D02*
X68159523Y92331010D01*
X68159523Y92854820D02*
X68159523Y91854820D01*
X69159523Y92854820D02*
X68588095Y92854820D01*
X68873809Y92854820D02*
X68873809Y91854820D01*
X68873809Y91854820D02*
X68778571Y91997677D01*
X68778571Y91997677D02*
X68683333Y92092915D01*
X68683333Y92092915D02*
X68588095Y92140534D01*
X83902319Y87059524D02*
X84616604Y87059524D01*
X84616604Y87059524D02*
X84759461Y87107143D01*
X84759461Y87107143D02*
X84854700Y87202381D01*
X84854700Y87202381D02*
X84902319Y87345238D01*
X84902319Y87345238D02*
X84902319Y87440476D01*
X84902319Y86059524D02*
X84902319Y86630952D01*
X84902319Y86345238D02*
X83902319Y86345238D01*
X83902319Y86345238D02*
X84045176Y86440476D01*
X84045176Y86440476D02*
X84140414Y86535714D01*
X84140414Y86535714D02*
X84188033Y86630952D01*
X84235652Y85202381D02*
X84902319Y85202381D01*
X83854700Y85440476D02*
X84568985Y85678571D01*
X84568985Y85678571D02*
X84568985Y85059524D01*
D14*
G04 #@! TO.C,J3*
X30900000Y99900000D02*
X30900000Y96700000D01*
X30900000Y94100000D02*
X30900000Y85200000D01*
X30900000Y85200000D02*
X31650000Y85200000D01*
X31400000Y102400000D02*
X31400000Y99900000D01*
X31400000Y99900000D02*
X30900000Y99900000D01*
X34850000Y85200000D02*
X37100000Y85200000D01*
X36600000Y102400000D02*
X31400000Y102400000D01*
X36600000Y99900000D02*
X36600000Y102400000D01*
X37100000Y99900000D02*
X36600000Y99900000D01*
X37100000Y98700000D02*
X37100000Y99900000D01*
X37100000Y98700000D02*
X39100000Y98700000D01*
X37100000Y96100000D02*
X39100000Y96100000D01*
X37100000Y89600000D02*
X37100000Y96100000D01*
X37100000Y85200000D02*
X37100000Y86400000D01*
G04 #@! TO.C,J14*
X74060000Y86900000D02*
X74060000Y85160000D01*
X74060000Y85160000D02*
X75800000Y85160000D01*
X74300000Y100000000D02*
X74300000Y85400000D01*
X74300000Y85400000D02*
X77100000Y85400000D01*
X80700000Y85400000D02*
X83500000Y85400000D01*
X83500000Y100000000D02*
X74300000Y100000000D01*
X83500000Y91000000D02*
X83500000Y100000000D01*
X83500000Y85400000D02*
X83500000Y87400000D01*
D15*
G04 #@! TO.C,G\u002A\u002A\u002A*
G36*
X33717172Y27923450D02*
G01*
X33827441Y27870702D01*
X33914096Y27780073D01*
X33961491Y27665123D01*
X33964174Y27638853D01*
X33967838Y27553517D01*
X33970591Y27422108D01*
X33972362Y27252413D01*
X33973083Y27052213D01*
X33972683Y26829293D01*
X33971094Y26591438D01*
X33962241Y25618096D01*
X33876095Y25528217D01*
X33819682Y25477044D01*
X33750866Y25446003D01*
X33654273Y25438338D01*
X33572348Y25443217D01*
X33500687Y25469095D01*
X33432451Y25528217D01*
X33346305Y25618096D01*
X33337452Y26591438D01*
X33336328Y26739422D01*
X33335480Y26968989D01*
X33335779Y27178821D01*
X33337156Y27361135D01*
X33339541Y27508146D01*
X33342864Y27612070D01*
X33347055Y27665123D01*
X33366426Y27728473D01*
X33436654Y27832174D01*
X33537818Y27904340D01*
X33654273Y27931409D01*
X33717172Y27923450D01*
G37*
G36*
X26227653Y28542465D02*
G01*
X26299314Y28516587D01*
X26367550Y28457466D01*
X26453696Y28367587D01*
X26462549Y27394244D01*
X26463673Y27246261D01*
X26464521Y27016693D01*
X26464222Y26806861D01*
X26462845Y26624547D01*
X26460460Y26477536D01*
X26457137Y26373612D01*
X26452946Y26320559D01*
X26451118Y26311915D01*
X26411253Y26220308D01*
X26345667Y26137245D01*
X26342333Y26134155D01*
X26250201Y26072274D01*
X26145728Y26054273D01*
X26082829Y26062232D01*
X25972560Y26114980D01*
X25885905Y26205610D01*
X25838510Y26320559D01*
X25835827Y26346830D01*
X25832163Y26432166D01*
X25829410Y26563574D01*
X25827639Y26733270D01*
X25826918Y26933469D01*
X25827317Y27156389D01*
X25828907Y27394244D01*
X25837760Y28367587D01*
X25923906Y28457466D01*
X25980319Y28508639D01*
X26049135Y28539679D01*
X26145728Y28547345D01*
X26227653Y28542465D01*
G37*
G36*
X29981925Y28542465D02*
G01*
X30053586Y28516587D01*
X30121823Y28457466D01*
X30207968Y28367587D01*
X30216821Y27394244D01*
X30217946Y27246261D01*
X30218794Y27016693D01*
X30218494Y26806861D01*
X30217117Y26624547D01*
X30214733Y26477536D01*
X30211410Y26373612D01*
X30207218Y26320559D01*
X30205391Y26311915D01*
X30165525Y26220308D01*
X30099940Y26137245D01*
X30096606Y26134155D01*
X30004474Y26072274D01*
X29900000Y26054273D01*
X29837101Y26062232D01*
X29726832Y26114980D01*
X29640177Y26205610D01*
X29592783Y26320559D01*
X29590100Y26346830D01*
X29586435Y26432166D01*
X29583683Y26563574D01*
X29581911Y26733270D01*
X29581190Y26933469D01*
X29581590Y27156389D01*
X29583180Y27394244D01*
X29592033Y28367587D01*
X29678178Y28457466D01*
X29734591Y28508639D01*
X29803408Y28539679D01*
X29900000Y28547345D01*
X29981925Y28542465D01*
G37*
G36*
X28751548Y28535209D02*
G01*
X28855617Y28477781D01*
X28927582Y28384237D01*
X28930033Y28377670D01*
X28939926Y28320264D01*
X28947859Y28215872D01*
X28953905Y28062163D01*
X28958134Y27856807D01*
X28960620Y27597473D01*
X28961432Y27281831D01*
X28961432Y26253719D01*
X28861709Y26153996D01*
X28829759Y26125417D01*
X28713846Y26065384D01*
X28592464Y26058245D01*
X28477932Y26102866D01*
X28382571Y26198112D01*
X28370704Y26218638D01*
X28358663Y26251649D01*
X28349055Y26299199D01*
X28341515Y26367591D01*
X28335678Y26463128D01*
X28331180Y26592112D01*
X28327655Y26760848D01*
X28324737Y26975638D01*
X28322063Y27242786D01*
X28320053Y27506998D01*
X28319622Y27749969D01*
X28321753Y27945687D01*
X28327137Y28100145D01*
X28336464Y28219338D01*
X28350425Y28309262D01*
X28369709Y28375910D01*
X28395007Y28425277D01*
X28427011Y28463358D01*
X28466409Y28496148D01*
X28515407Y28525136D01*
X28632452Y28552375D01*
X28751548Y28535209D01*
G37*
G36*
X32505821Y28535209D02*
G01*
X32609889Y28477781D01*
X32681854Y28384237D01*
X32684306Y28377670D01*
X32694198Y28320264D01*
X32702131Y28215872D01*
X32708177Y28062163D01*
X32712407Y27856807D01*
X32714892Y27597473D01*
X32715705Y27281831D01*
X32715705Y26253719D01*
X32615982Y26153996D01*
X32584032Y26125417D01*
X32468119Y26065384D01*
X32346736Y26058245D01*
X32232205Y26102866D01*
X32136844Y26198112D01*
X32124976Y26218638D01*
X32112935Y26251649D01*
X32103327Y26299199D01*
X32095787Y26367591D01*
X32089951Y26463128D01*
X32085453Y26592112D01*
X32081927Y26760848D01*
X32079010Y26975638D01*
X32076335Y27242786D01*
X32074326Y27506998D01*
X32073895Y27749969D01*
X32076026Y27945687D01*
X32081410Y28100145D01*
X32090737Y28219338D01*
X32104697Y28309262D01*
X32123981Y28375910D01*
X32149280Y28425277D01*
X32181283Y28463358D01*
X32220681Y28496148D01*
X32269679Y28525136D01*
X32386725Y28552375D01*
X32505821Y28535209D01*
G37*
G36*
X27469054Y28545471D02*
G01*
X27579320Y28496148D01*
X27615143Y28466757D01*
X27647850Y28429471D01*
X27673785Y28381494D01*
X27693636Y28316832D01*
X27708095Y28229492D01*
X27717852Y28113477D01*
X27723597Y27962794D01*
X27726021Y27771447D01*
X27725813Y27533443D01*
X27723665Y27242786D01*
X27722792Y27147174D01*
X27720056Y26888137D01*
X27716535Y26679627D01*
X27711283Y26515499D01*
X27703353Y26389608D01*
X27691798Y26295809D01*
X27675670Y26227959D01*
X27654024Y26179911D01*
X27625911Y26145523D01*
X27590386Y26118648D01*
X27546500Y26093142D01*
X27540011Y26089622D01*
X27416816Y26053690D01*
X27296420Y26075439D01*
X27184019Y26153996D01*
X27084296Y26253719D01*
X27084296Y27281831D01*
X27084335Y27356383D01*
X27085510Y27659410D01*
X27088374Y27906642D01*
X27092998Y28100411D01*
X27099454Y28243046D01*
X27107813Y28336877D01*
X27118147Y28384237D01*
X27146566Y28432011D01*
X27235600Y28509259D01*
X27348788Y28548460D01*
X27469054Y28545471D01*
G37*
G36*
X31223326Y28545471D02*
G01*
X31333592Y28496148D01*
X31369415Y28466757D01*
X31402123Y28429471D01*
X31428057Y28381494D01*
X31447909Y28316832D01*
X31462368Y28229492D01*
X31472124Y28113477D01*
X31477869Y27962794D01*
X31480293Y27771447D01*
X31480086Y27533443D01*
X31477938Y27242786D01*
X31477064Y27147174D01*
X31474328Y26888137D01*
X31470808Y26679627D01*
X31465556Y26515499D01*
X31457626Y26389608D01*
X31446070Y26295809D01*
X31429943Y26227959D01*
X31408296Y26179911D01*
X31380184Y26145523D01*
X31344658Y26118648D01*
X31300773Y26093142D01*
X31294284Y26089622D01*
X31171089Y26053690D01*
X31050692Y26075439D01*
X30938291Y26153996D01*
X30838569Y26253719D01*
X30838569Y27281831D01*
X30838608Y27356383D01*
X30839783Y27659410D01*
X30842647Y27906642D01*
X30847271Y28100411D01*
X30853727Y28243046D01*
X30862086Y28336877D01*
X30872419Y28384237D01*
X30900838Y28432011D01*
X30989872Y28509259D01*
X31103060Y28548460D01*
X31223326Y28545471D01*
G37*
G36*
X28052194Y17280457D02*
G01*
X28052194Y16015185D01*
X27414261Y16031910D01*
X27356639Y16033491D01*
X27093204Y16043436D01*
X26878569Y16058017D01*
X26704509Y16079407D01*
X26562798Y16109778D01*
X26445212Y16151303D01*
X26343526Y16206153D01*
X26249515Y16276501D01*
X26154953Y16364520D01*
X26101618Y16422380D01*
X25985286Y16596007D01*
X25902575Y16805481D01*
X25849847Y17059084D01*
X25841006Y17133224D01*
X25838441Y17261802D01*
X26402808Y17261802D01*
X26405038Y17182634D01*
X26437161Y16968838D01*
X26508515Y16797833D01*
X26620519Y16667779D01*
X26774596Y16576831D01*
X26972163Y16523148D01*
X27054303Y16511820D01*
X27198738Y16498227D01*
X27326271Y16492832D01*
X27494920Y16492610D01*
X27494920Y17284527D01*
X27494920Y18076444D01*
X27221507Y18076444D01*
X27135063Y18075195D01*
X26942581Y18058959D01*
X26792056Y18021321D01*
X26673174Y17958962D01*
X26575621Y17868561D01*
X26502881Y17767265D01*
X26444296Y17632099D01*
X26412203Y17468054D01*
X26402808Y17261802D01*
X25838441Y17261802D01*
X25835486Y17409972D01*
X25872819Y17670076D01*
X25950222Y17906662D01*
X26064914Y18112851D01*
X26214112Y18281769D01*
X26395035Y18406540D01*
X26408848Y18413549D01*
X26501987Y18456033D01*
X26596853Y18488511D01*
X26702928Y18512257D01*
X26829692Y18528543D01*
X26986625Y18538644D01*
X27183210Y18543832D01*
X27428927Y18545380D01*
X28052194Y18545728D01*
X28052194Y17284527D01*
X28052194Y17280457D01*
G37*
G36*
X35238107Y26047110D02*
G01*
X35238107Y24177137D01*
X35076790Y24177137D01*
X34915474Y24177137D01*
X34915474Y23870702D01*
X34915474Y23564267D01*
X35069458Y23555402D01*
X35223442Y23546536D01*
X35230870Y19168996D01*
X35238298Y14791455D01*
X29899993Y14791455D01*
X24561688Y14791455D01*
X24569124Y18861028D01*
X24576559Y22930601D01*
X24730543Y22939466D01*
X24884527Y22948332D01*
X24884527Y23399441D01*
X24884430Y23518132D01*
X24883331Y23656054D01*
X24879964Y23750266D01*
X24873065Y23809791D01*
X24861370Y23843653D01*
X24843615Y23860878D01*
X24818534Y23870488D01*
X24812466Y23872515D01*
X24743963Y23909558D01*
X24671883Y23965942D01*
X24629995Y24011541D01*
X24599160Y24079467D01*
X24591224Y24177137D01*
X24595018Y24251148D01*
X24618236Y24324754D01*
X24671883Y24388331D01*
X24679175Y24394999D01*
X24752486Y24450263D01*
X24818534Y24483786D01*
X24828856Y24487174D01*
X24864413Y24510593D01*
X24880656Y24558104D01*
X24884527Y24646864D01*
X24884527Y24790006D01*
X24730543Y24798872D01*
X24576559Y24807737D01*
X24569062Y27308141D01*
X24563500Y29163280D01*
X25207160Y29163280D01*
X25207160Y27300809D01*
X25207160Y25438338D01*
X25368476Y25438338D01*
X25529793Y25438338D01*
X25529793Y23869169D01*
X25529793Y22300000D01*
X25368476Y22300000D01*
X25207160Y22300000D01*
X25207160Y18868361D01*
X25207160Y15436721D01*
X29900000Y15436721D01*
X34592841Y15436721D01*
X34592841Y19176328D01*
X34592841Y22915936D01*
X34431525Y22915936D01*
X34270208Y22915936D01*
X34270208Y23851083D01*
X34270208Y24786230D01*
X34336201Y24803916D01*
X34407530Y24816150D01*
X34497518Y24822002D01*
X34592841Y24822402D01*
X34592841Y26237799D01*
X34592841Y27653195D01*
X33837379Y28408237D01*
X33081918Y29163280D01*
X29144539Y29163280D01*
X25207160Y29163280D01*
X24563500Y29163280D01*
X24561565Y29808545D01*
X28953768Y29808545D01*
X33345972Y29808545D01*
X34292039Y28862814D01*
X35238107Y27917083D01*
X35238107Y27653195D01*
X35238107Y26047110D01*
G37*
G36*
X29827340Y18571992D02*
G01*
X29978541Y18536712D01*
X30152117Y18457852D01*
X30314687Y18335546D01*
X30430967Y18185176D01*
X30497359Y18011595D01*
X30510265Y17819656D01*
X30502472Y17754190D01*
X30476839Y17634117D01*
X30443130Y17537758D01*
X30406666Y17472131D01*
X30355900Y17408303D01*
X30287876Y17350660D01*
X30195976Y17295843D01*
X30073580Y17240495D01*
X29914067Y17181258D01*
X29710820Y17114776D01*
X29457217Y17037689D01*
X29301644Y16986948D01*
X29180129Y16933494D01*
X29102551Y16876852D01*
X29061464Y16811433D01*
X29049423Y16731650D01*
X29056779Y16656831D01*
X29105037Y16552700D01*
X29199732Y16480062D01*
X29342492Y16437889D01*
X29534945Y16425151D01*
X29564650Y16425867D01*
X29742172Y16454955D01*
X29882154Y16524460D01*
X29980842Y16631758D01*
X30034480Y16774223D01*
X30053180Y16873903D01*
X30328553Y16873903D01*
X30603927Y16873903D01*
X30603927Y16791138D01*
X30601374Y16747410D01*
X30566772Y16602202D01*
X30499270Y16451625D01*
X30408537Y16319037D01*
X30345426Y16253754D01*
X30169120Y16129238D01*
X29943996Y16035121D01*
X29861931Y16017352D01*
X29722718Y16003136D01*
X29560050Y15997639D01*
X29393071Y16000891D01*
X29240922Y16012924D01*
X29122749Y16033770D01*
X29114165Y16036088D01*
X28894648Y16119943D01*
X28721420Y16237992D01*
X28595813Y16388652D01*
X28519159Y16570342D01*
X28492792Y16781480D01*
X28493006Y16810604D01*
X28505989Y16952480D01*
X28542527Y17074413D01*
X28607565Y17180325D01*
X28706049Y17274140D01*
X28842926Y17359782D01*
X29023142Y17441173D01*
X29251642Y17522237D01*
X29533372Y17606898D01*
X29583127Y17621227D01*
X29741948Y17672464D01*
X29852348Y17720654D01*
X29921869Y17770830D01*
X29958052Y17828024D01*
X29968438Y17897270D01*
X29956598Y17975865D01*
X29899713Y18060321D01*
X29790954Y18124983D01*
X29693112Y18154640D01*
X29542666Y18163664D01*
X29397874Y18134811D01*
X29271216Y18072865D01*
X29175178Y17982605D01*
X29122240Y17868815D01*
X29103423Y17783141D01*
X28841781Y17783141D01*
X28758124Y17783268D01*
X28655416Y17788159D01*
X28598862Y17807389D01*
X28580551Y17850760D01*
X28592568Y17928072D01*
X28627001Y18049123D01*
X28680583Y18174058D01*
X28792609Y18324492D01*
X28940536Y18448999D01*
X29111536Y18534720D01*
X29261311Y18570232D01*
X29446473Y18588701D01*
X29642567Y18589305D01*
X29827340Y18571992D01*
G37*
G04 #@! TD*
M02*
